<?xml version="1.0" encoding="UTF-8" standalone="no"?>
<svg
   xmlns:dc="http://purl.org/dc/elements/1.1/"
   xmlns:cc="http://creativecommons.org/ns#"
   xmlns:rdf="http://www.w3.org/1999/02/22-rdf-syntax-ns#"
   xmlns:svg="http://www.w3.org/2000/svg"
   xmlns="http://www.w3.org/2000/svg"
   xmlns:sodipodi="http://sodipodi.sourceforge.net/DTD/sodipodi-0.dtd"
   xmlns:inkscape="http://www.inkscape.org/namespaces/inkscape"
   width="254.10129mm"
   height="77.193474mm"
   viewBox="0 0 254.10129 77.193474"
   version="1.1"
   id="svg8"
   inkscape:version="1.0.2 (e86c870879, 2021-01-15, custom)"
   sodipodi:docname="Czech Art Nouveau floral title.svg">
  <defs
     id="defs2" />
  <sodipodi:namedview
     id="base"
     pagecolor="#ffffff"
     bordercolor="#666666"
     borderopacity="1.0"
     inkscape:pageopacity="0.0"
     inkscape:pageshadow="2"
     inkscape:zoom="0.98994949"
     inkscape:cx="469.46602"
     inkscape:cy="56.286468"
     inkscape:document-units="mm"
     inkscape:current-layer="layer1"
     inkscape:document-rotation="0"
     showgrid="false"
     inkscape:window-width="1346"
     inkscape:window-height="967"
     inkscape:window-x="143"
     inkscape:window-y="18"
     inkscape:window-maximized="0" />
  <metadata
     id="metadata5">
    <rdf:RDF>
      <cc:Work
         rdf:about="">
        <dc:format>image/svg+xml</dc:format>
        <dc:type
           rdf:resource="http://purl.org/dc/dcmitype/StillImage" />
        <dc:title></dc:title>
      </cc:Work>
    </rdf:RDF>
  </metadata>
  <g
     inkscape:label="Layer 1"
     inkscape:groupmode="layer"
     id="layer1"
     transform="translate(10.401104,-72.020532)">
    <path
       style="fill:#000000;stroke-width:0.264583"
       d="m -10.033322,148.58571 c 0.0021,-0.34559 -0.05088,-6.10522 -0.117694,-12.79918 -0.06681,-6.69396 -0.15041,-23.60084 -0.185778,-37.570836 l -0.06431,-25.400001 19.6950222,-0.05685 c 10.8322628,-0.03127 26.0648648,-0.05548 33.8502298,-0.05382 7.785365,0.0017 14.333803,5.8e-5 14.552084,-0.0036 6.144268,-0.102232 29.457455,-0.249832 37.835415,-0.239544 6.184643,0.0076 11.423393,0.01211 11.641673,0.01003 0.21828,-0.0021 28.64616,-0.02901 63.17307,-0.05986 36.00536,-0.03216 62.83783,-0.155823 62.92074,-0.289973 0.0835,-0.135119 0.33331,-0.135425 0.59152,-7.14e-4 0.24583,0.128243 2.38702,0.244673 4.75821,0.258734 2.37118,0.01406 4.48538,0.123017 4.69821,0.242125 0.33678,0.18847 0.38672,5.136788 0.38508,38.150689 -0.001,20.86378 -0.0532,37.98546 -0.11593,38.04818 -0.0627,0.0627 -57.15317,0.17678 -126.86768,0.25348 l -126.753643,0.13944 0.0038,-0.62834 z m 252.911392,-0.38813 c 0.0582,-0.0545 0.14988,-17.02435 0.20377,-37.71088 l 0.098,-37.611865 -87.25169,0.18099 c -47.98844,0.09955 -96.062332,0.239727 -106.830874,0.311517 -10.768542,0.07179 -28.389792,0.15563 -39.1583338,0.186314 l -19.5791672,0.05579 0.094543,37.306244 c 0.051998,20.51844 0.1475941,37.39438 0.2124342,37.50208 0.1160028,0.19268 252.0051478,-0.0272 252.2113178,-0.22019 z M 8.2118762,142.08368 c -0.359801,-0.24735 -0.796269,-0.64481 -0.969929,-0.88323 -0.226168,-0.31052 -0.751607,-0.43946 -1.852083,-0.45451 -1.58104,-0.0216 -3.328758,-0.58794 -3.704585,-1.20043 -0.117152,-0.19092 -0.615508,-0.57902 -1.10745797,-0.86243 -0.731003,-0.42114 -1.009955,-0.85375 -1.526517,-2.36738 -0.54459403,-1.59579 -0.59294203,-2.01272 -0.34937703,-3.01283 0.232242,-0.95361 0.203906,-1.32676 -0.158789,-2.09108 -0.557223,-1.17426 -0.34417,-3.40958 0.46162303,-4.8433 l 0.560397,-0.99709 -0.70016503,-0.8321 c -0.38509,-0.45765 -0.769605,-1.15034 -0.854477,-1.53931 -0.08487,-0.38897 -0.205988,-0.87122 -0.269145,-1.07167 -0.06316,-0.20045 -0.03787,-0.94459 0.05618,-1.65365 0.205428,-1.54859 0.646957,-1.66259 1.48540903,-0.38352 0.616333,0.94023 1.71921897,1.74017 2.39918597,1.74017 0.30431,0 0.387972,-0.34277 0.371324,-1.52135 -0.03913,-2.77052 0.565514,-5.70171 1.691332,-8.1992 0.278076,-0.61688 0.505593,-1.18896 0.505593,-1.27129 0,-0.39775 2.361004,-3.56195 3.426307,-4.59192 3.4497058,-3.33527 8.2492288,-5.92622 11.3903598,-6.148918 3.153299,-0.22356 -0.03775,-0.735468 -3.697144,-0.593093 -3.944766,0.153475 -5.8972178,0.955021 -8.5599078,3.514111 -1.724285,1.6572 -2.293118,2.56055 -2.299083,3.65112 -0.0048,0.87781 -0.205781,1.22466 -0.930321,1.60555 -0.639497,0.33618 -2.044006,3.74655 -2.094914,5.08679 -0.05139,1.35287 -0.69556097,1.30921 -2.25888497,-0.15309 -1.03470803,-0.96785 -1.42964203,-1.57424 -1.75564603,-2.69565 -0.749123,-2.5769 -0.324089,-5.21142 1.237069,-7.66783 0.30809303,-0.48477 0.31653303,-0.68261 0.04515,-1.05833 -0.775358,-1.07345 -1.053867,-2.010631 -0.829749,-2.792086 0.123761,-0.43153 0.282236,-0.841814 0.352165,-0.911744 0.06993,-0.06993 1.29399303,-0.152746 2.72014303,-0.184039 1.57724597,-0.03461 3.26669097,-0.250428 4.31279097,-0.550942 1.41272,-0.405836 2.664625,-0.496474 7.0114578,-0.507632 5.224481,-0.01341 11.244792,0.49402 11.244792,0.947783 0,0.303919 -1.078357,0.26984 -4.894792,-0.154684 -4.513178,-0.502028 -9.9059468,-0.352716 -13.4937498,0.373605 -1.600729,0.324057 -3.684323,0.607777 -4.63020897,0.630494 -0.945885,0.0227 -1.80726503,0.160364 -1.91417703,0.305885 -0.655837,0.892675 0.40333003,2.69282 1.39854503,2.37695 0.801434,-0.25436 0.629164,0.33501 -0.557214,1.90636 -0.59006603,0.78154 -1.24491003,1.90865 -1.45520903,2.5047 -0.499765,1.41648 -0.487092,3.69321 0.02743,4.9283 0.398283,0.95606 2.12981703,2.96807 2.55431903,2.96807 0.115988,0 0.210887,-0.36194 0.210887,-0.80429 0,-0.44236 0.22570097,-1.24671 0.50155797,-1.78743 0.275857,-0.54072 0.629636,-1.45878 0.786176,-2.04012 0.181506,-0.67407 0.502195,-1.15279 0.885195,-1.32143 0.401238,-0.17667 0.651508,-0.57181 0.754024,-1.19048 0.238968,-1.44216 0.881468,-2.44117 2.567596,-3.99229 3.439679,-3.164278 5.2937648,-3.651892 13.8398118,-3.639796 3.430617,0.0048 6.928321,-0.07748 7.772673,-0.18298 1.247502,-0.155866 1.512422,-0.123333 1.4137,0.173606 -0.07708,0.231844 -0.742172,0.432893 -1.81955,0.550019 -6.943714,0.75489 -10.31652,1.538371 -13.51547,3.139561 -3.844885,1.9245 -7.4077598,5.39294 -9.2093228,8.96522 -1.537888,3.04945 -2.56737,8.21649 -1.889438,9.48322 0.500739,0.93564 0.970049,0.44753 0.923157,-0.96013 -0.04852,-1.45666 0.400055,-4.01143 0.704346,-4.01143 0.112615,0 0.154229,-0.20836 0.09248,-0.46302 -0.115245,-0.47526 0.45212,-1.73134 1.949531,-4.31602 1.101783,-1.90179 4.8335168,-5.53504 6.6040128,-6.42972 2.354694,-1.1899 2.421999,-1.00441 0.679519,1.87281 -0.686125,1.13295 -2.269575,3.13147 -3.518774,4.44115 -2.5945708,2.72021 -3.0625958,3.38525 -3.3098318,4.70314 -0.227491,1.21263 0.08613,2.80237 0.449286,2.2774 0.1816,-0.26251 0.207038,-0.20151 0.09,0.21583 -0.111641,0.39808 0.01516,0.76009 0.401592,1.14652 0.706921,0.70693 0.85187,0.56437 0.832778,-0.81902 -0.01833,-1.32784 0.771831,-2.77633 2.6380568,-4.83601 0.242763,-0.26793 0.816362,-1.19066 1.27466,-2.05052 0.4583,-0.85986 0.939284,-1.56338 1.068858,-1.56338 0.129572,0 0.215667,0.86321 0.191323,1.91823 -0.05036,2.18234 0.2975,3.05291 1.833692,4.5891 1.821318,1.82132 6.329903,3.34811 7.360693,2.49263 0.332742,-0.27615 0.336309,-0.42171 0.02508,-1.02355 -0.520681,-1.00689 -1.098462,-1.45988 -3.260857,-2.55656 -3.1003,-1.57236 -5.320911,-3.88078 -4.699842,-4.8857 0.11288,-0.18264 0.488686,0.0195 1.017096,0.54715 0.460938,0.46026 1.492911,1.25858 2.293276,1.77406 0.800365,0.51548 1.495142,1.03714 1.543952,1.15925 0.04881,0.12211 0.194141,0.15689 0.322959,0.0773 0.128817,-0.0796 0.603123,0.046 1.05401,0.27918 0.450887,0.23317 1.692571,0.59093 2.759297,0.79502 2.709571,0.51843 5.162772,0.0971 6.737924,-1.15723 0.622882,-0.49601 0.629362,-0.53559 0.195945,-1.19707 -0.546407,-0.83392 -1.916316,-1.5805 -2.581097,-1.40666 -0.268693,0.0703 -0.626552,-0.0386 -0.795243,-0.2418 -0.398002,-0.47956 -2.10158,-0.46777 -3.94608,0.0273 -2.170176,0.5825 -3.773485,0.50474 -5.274361,-0.25582 -1.451723,-0.73564 -2.224847,-1.59114 -2.677551,-2.96285 -0.296516,-0.89845 -0.17644,-2.75107 0.218466,-3.37068 0.181327,-0.2845 0.225833,-0.42844 0.292039,-0.94448 0.09867,-0.76906 4.91135,-2.16722 9.161198,-2.66147 1.309688,-0.15231 3.512344,-0.47881 4.894792,-0.72555 3.913071,-0.698409 11.804616,-0.617719 16.375613,0.16744 1.948829,0.33475 3.840838,0.72175 4.204471,0.86 0.363632,0.13825 1.626637,0.47365 2.806678,0.74532 2.619108,0.60298 5.446208,1.32184 5.981989,1.52108 0.218281,0.0812 0.803735,0.18944 1.301007,0.2406 0.962088,0.099 1.55794,0.47659 1.149924,0.72876 -0.488098,0.30166 -4.530027,0.7635 -7.794996,0.89068 -2.716554,0.10581 -3.856146,0.0284 -5.953125,-0.40416 -4.358929,-0.89923 -6.957447,-1.32556 -10.09912,-1.6569 -3.179217,-0.3353 -7.765875,-0.17733 -8.815745,0.30362 -1.54886,0.70954 -3.232195,1.73275 -3.323881,2.02041 -0.121205,0.38028 4.006573,2.46129 4.882071,2.46129 0.363228,0 0.608031,0.15928 0.608031,0.39562 0,0.30489 0.318579,0.38837 1.389062,0.36399 0.763985,-0.0174 2.061375,0.10811 2.883088,0.27892 2.133714,0.44353 8.234461,0.49757 11.352597,0.10056 1.462368,-0.18619 3.754025,-0.64156 5.092573,-1.01193 1.338548,-0.37037 2.552785,-0.70505 2.698306,-0.74373 0.14552,-0.0387 0.53771,-0.22043 0.871532,-0.40388 0.810038,-0.44514 2.964929,-0.70215 2.964929,-0.35362 0,0.7809 -3.933315,3.02888 -7.220707,4.12679 -2.01471,0.67287 -5.618801,1.21576 -8.093639,1.21917 -2.404692,0.003 -4.817407,0.49874 -5.548199,1.13926 -0.240027,0.21038 -0.685596,0.45821 -0.990153,0.55073 -0.304556,0.0925 -1.174559,0.63142 -1.933337,1.19754 l -1.379595,1.02932 0.610417,0.58523 c 1.118174,1.07203 3.662035,2.10893 5.174483,2.10916 1.010817,1.5e-4 1.389062,0.10057 1.389062,0.36877 0,0.89933 2.737044,0.93604 5.12639,0.0687 3.71398,-1.3481 7.683029,-4.50225 12.702643,-10.09461 2.781094,-3.09842 3.389959,-3.13779 2.045613,-0.13229 -2.238346,5.00419 1.544947,10.11552 7.782762,10.51472 1.940258,0.12417 2.239454,0.0744 3.439583,-0.57207 1.722602,-0.92793 2.976245,-1.79866 3.13463,-2.17718 0.357182,-0.85362 -2.557928,-3.26755 -3.945964,-3.26755 -0.300569,0 -0.673243,-0.12676 -0.828165,-0.28168 -0.199178,-0.19918 -0.682405,-0.1506 -1.64992,0.16585 -2.522842,0.82518 -4.682342,-0.0413 -6.038684,-2.42287 -0.556299,-0.97681 -0.752057,-2.76314 -0.374171,-3.41443 0.08443,-0.14552 0.189095,-0.49336 0.232582,-0.77299 0.17172,-1.10417 1.575213,-2.00514 3.123528,-2.00514 0.944745,0 3.567637,0.61581 4.353341,1.02209 0.218281,0.11287 1.003723,0.23459 1.74543,0.27049 1.875065,0.0907 2.229178,0.15918 2.296739,0.4438 0.03238,0.1364 -0.478851,0.30992 -1.136065,0.38559 -0.748292,0.0862 -1.638361,0.45052 -2.38125,0.97478 -0.857166,0.6049 -1.620504,0.88869 -2.751228,1.02281 l -1.564912,0.18564 0.770308,0.4036 c 1.106299,0.57965 3.891163,0.0644 6.028764,-1.11535 1.755944,-0.96915 2.727412,-1.24247 4.789157,-1.34744 0.73215,-0.0373 1.637003,-0.14864 2.010783,-0.24749 0.644297,-0.17037 0.702482,-0.0974 1.120058,1.40454 0.242252,0.87133 0.71034,1.88434 1.040191,2.25112 0.578866,0.64367 0.632992,0.65309 1.555596,0.27067 l 0.95585,-0.39621 -0.64282,-1.59146 c -0.49853,-1.23424 -0.65305,-2.1368 -0.68839,-4.02108 -0.0251,-1.3363 0.0458,-2.84636 0.15756,-3.35568 0.11172,-0.50932 0.25011,-1.22583 0.30751,-1.592246 0.24314,-1.5519 1.37252,-3.896204 2.76832,-5.746293 l 0.63889,-0.84683 1.2613,1.281349 c 1.45527,1.478412 2.54939,1.899954 3.07294,1.183949 0.38966,-0.532885 0.45071,-1.159095 0.11301,-1.159095 -0.12545,0 -0.77983,-0.446484 -1.45419,-0.992187 -1.60963,-1.30256 -1.63108,-2.009169 -0.10365,-3.414849 1.56856,-1.443529 5.74632,-3.877978 8.26823,-4.818032 1.16416,-0.433948 3.42635,-1.116549 5.02708,-1.516891 2.72659,-0.68192 3.28643,-0.729143 8.86354,-0.747655 5.67301,-0.01883 6.0714,0.01339 8.46667,0.684727 4.50799,1.263487 6.83856,2.665245 8.79996,5.292885 2.08696,2.795839 2.37989,7.42268 0.67561,10.671377 -1.17368,2.237281 -2.95004,3.609601 -6.16828,4.765291 -1.68596,0.60544 -2.37435,1.02458 -3.38302,2.05979 -1.01059,1.03717 -1.20445,1.37428 -0.9598,1.66907 0.4,0.48197 2.08424,0.4599 2.73975,-0.0359 0.67081,-0.50738 1.44643,-0.4952 1.64638,0.0259 0.0996,0.25951 -0.17425,0.75812 -0.73286,1.33446 -0.88084,0.9088 -1.91278,1.31049 -5.65613,2.20168 -1.47882,0.35206 -4.15158,2.23583 -3.9431,2.7791 0.2972,0.77449 1.50372,1.07565 4.30929,1.07565 2.45578,0 3.01693,-0.0894 4.51296,-0.71899 1.48161,-0.62352 1.7632,-0.66947 2.12055,-0.34607 0.91109,0.82453 2.59281,-0.65282 4.96188,-4.35889 2.66226,-4.16472 3.96804,-9.01122 3.699,-13.72914 -0.17428,-3.056157 -0.25625,-3.446461 -1.00283,-4.774816 -0.54483,-0.969399 -0.55527,-1.868964 -0.0217,-1.868964 0.49723,0 1.66745,1.149913 2.16729,2.129671 1.32188,2.591102 1.26652,7.356793 -0.16535,14.234549 -1.02336,4.91554 -1.40815,8.5892 -0.93057,8.88437 0.16824,0.10397 0.72488,0.0508 1.23699,-0.11826 0.67146,-0.2216 0.89624,-0.42975 0.80606,-0.74642 -0.53009,-1.86128 -0.46639,-2.94292 0.5245,-8.90578 0.5408,-3.25441 0.60819,-8.480964 0.13475,-10.451047 -0.19234,-0.800364 -0.63395,-1.97622 -0.98136,-2.613012 -0.76282,-1.398223 -0.79557,-1.705943 -0.0916,-0.860861 0.28734,0.344943 0.78939,1.476037 1.11568,2.513542 0.50738,1.613328 0.58976,2.441681 0.56915,5.722832 -0.0137,2.184426 -0.2071,4.918826 -0.44908,6.349996 -0.61063,3.61155 -0.70931,7.12332 -0.22177,7.89237 0.17356,0.27377 0.49851,0.15753 1.46597,-0.52439 0.97436,-0.6868 1.20903,-0.99152 1.0859,-1.41007 -0.0864,-0.29367 -0.21294,-2.37942 -0.28122,-4.63499 -0.30837,-10.186503 -0.34481,-10.697162 -0.8875,-12.435417 -1.00329,-3.213583 -2.58112,-5.170737 -5.22491,-6.481027 -1.56773,-0.776985 -2.06956,-1.280923 -1.8487,-1.856477 0.21452,-0.559033 1.13972,-0.308972 3.6733,0.992819 3.05934,1.571927 6.92074,5.231242 8.23889,7.807706 0.34728,0.678794 0.60568,0.859896 1.22689,0.859896 0.43283,0 0.78696,-0.06691 0.78696,-0.148677 0,-0.692224 -1.6819,-3.390718 -2.97475,-4.772775 -1.3836,-1.479077 -3.62512,-3.280631 -4.0818,-3.280631 -0.48387,0 -2.44852,-1.519157 -2.3952,-1.852083 0.0914,-0.570568 1.3328,-0.633659 2.4974,-0.126922 0.55067,0.239608 1.41571,0.615516 1.92231,0.835353 1.44519,0.627133 4.76509,3.080742 6.26357,4.629166 1.27804,1.320626 3.31644,4.282219 3.97474,5.774903 0.91385,2.072155 1.07209,3.882546 0.52035,5.953126 -0.54264,2.03637 -1.08425,2.88072 -2.81148,4.38302 -1.40929,1.22577 -2.05565,2.36385 -1.34252,2.36385 0.13734,0 0.0326,0.50602 -0.23266,1.12448 -0.2653,0.61847 -0.55065,1.74956 -0.63411,2.51355 l -0.15175,1.38906 1.11201,-0.002 c 1.6055,-0.002 3.01838,-0.46022 3.49544,-1.13329 l 0.41465,-0.58503 0.50596,0.66146 c 0.50133,0.6554 0.50977,0.65661 0.92235,0.13229 2.21304,-2.81241 2.70965,-4.0255 2.99925,-7.32638 0.3524,-4.01673 -0.93856,-8.492884 -3.46063,-11.99899 -1.16002,-1.612623 -2.27635,-2.613447 -4.68517,-4.200384 -1.02188,-0.673107 -1.85796,-1.34419 -1.85796,-1.491186 0,-0.945125 2.60409,-0.302749 4.90771,1.210634 2.96534,1.948101 5.16563,5.15142 6.5133,9.482456 1.12404,3.61237 1.16354,6.77117 0.13227,10.57723 -0.794,2.93037 -0.8992,5.11797 -0.3017,6.27341 0.22202,0.42934 0.45596,0.78062 0.51986,0.78062 0.59973,0 1.51803,-3.98139 1.1571,-5.01674 -0.33052,-0.94813 0.12732,-2.19919 0.76022,-2.07731 0.36034,0.0694 0.51644,0.54321 0.73181,2.2213 0.15615,1.21674 0.48779,2.46581 0.77199,2.90761 0.69915,1.08686 2.07917,2.47991 2.31335,2.33518 0.10782,-0.0666 0.71986,0.27869 1.36009,0.76739 1.15721,0.88331 3.27561,1.66848 3.9211,1.45332 0.25063,-0.0835 0.31813,-0.78678 0.26169,-2.72618 -0.0909,-3.12205 -0.67116,-4.91263 -2.01377,-6.21395 -0.6253,-0.60606 -0.92669,-1.13946 -0.92669,-1.64003 0,-0.99974 0.70495,-0.97792 1.67693,0.0519 0.93989,0.99582 2.53376,1.19437 3.31515,0.41298 0.30885,-0.30885 0.26353,-0.49778 -0.29948,-1.24835 -0.36487,-0.48643 -0.93219,-1.4202 -1.2607,-2.07505 -0.32851,-0.65484 -1.80569,-2.44078 -3.28262,-3.96875 -1.47693,-1.52796 -3.40952,-3.67328 -4.29465,-4.767367 -1.79483,-2.218555 -4.54276,-4.876527 -6.48171,-6.26953 -0.70354,-0.505443 -1.27917,-1.033908 -1.27917,-1.174366 0,-0.140459 -0.11084,-0.186879 -0.2463,-0.103157 -0.13547,0.08372 -0.31646,0.0387 -0.40222,-0.100054 -0.26986,-0.436644 -3.58126,-1.886029 -4.86698,-2.130253 -1.79632,-0.341216 -2.68658,-0.734352 -2.68658,-1.186388 0,-1.012956 2.94838,-0.828629 6.66816,0.416883 2.35476,0.788451 6.56986,2.716215 9.79622,4.480258 1.69584,0.927223 3.3815,1.259089 4.25401,0.837514 0.31931,-0.154282 1.20848,-0.34417 1.97593,-0.421972 1.79051,-0.181518 1.9607,-0.297528 1.5995,-1.090288 -0.40879,-0.89719 -1.96205,-1.856939 -3.95106,-2.441323 -1.39064,-0.408583 -1.70544,-0.605824 -1.77893,-1.114623 -0.17467,-1.209239 0.93388,-1.281353 3.98355,-0.259139 1.83135,0.613846 5.28069,0.686512 6.34052,0.133574 0.39038,-0.203669 1.0681,-0.449006 1.50604,-0.545193 0.43793,-0.09619 1.29013,-0.532653 1.89376,-0.969924 1.07797,-0.780871 1.08886,-0.804613 0.61126,-1.332348 -1.06518,-1.17702 -3.42207,-1.96985 -6.62955,-2.230103 -1.63471,-0.13264 -2.34723,-0.312171 -2.78926,-0.702807 -0.5515,-0.487377 -0.84752,-0.512809 -4.16557,-0.357887 -2.4084,0.112449 -4.82154,0.429705 -7.40833,0.973972 -8.65893,1.821854 -12.64618,2.332593 -17.06563,2.185983 -3.02675,-0.100409 -7.05989,-0.629775 -9.78958,-1.284923 -0.87313,-0.209557 -1.95007,-0.420535 -2.39322,-0.468841 -0.44314,-0.04831 -0.92425,-0.161085 -1.06912,-0.250621 -0.6853,-0.423538 -5.4776,-1.038557 -9.89912,-1.270403 -5.58174,-0.292682 -7.8051,-0.162661 -12.17083,0.711744 -2.30055,0.460772 -7.09653,2.04466 -8.38855,2.770343 -0.48838,0.274309 -1.03937,0.498743 -1.22441,0.498743 -0.56993,0 -4.11023,2.493087 -6.10208,4.297099 -2.65596,2.405498 -5.222435,6.379529 -6.491324,10.051406 -0.547709,1.584941 -0.466296,1.668901 -1.598396,-1.648484 -0.322797,-0.945885 -0.802851,-2.315104 -1.066789,-3.042708 l -0.479885,-1.322917 -0.314757,0.859896 c -0.351451,0.960142 -0.764953,1.063281 -1.729391,0.431357 -1.013737,-0.664227 -3.502681,-0.396147 -4.824097,0.519596 -1.022498,0.70859 -1.647002,1.643556 -1.647002,2.465778 0,0.318241 0.170005,0.375166 0.727604,0.243634 0.400182,-0.0944 1.531667,-0.243369 2.514412,-0.331041 2.214441,-0.197554 3.769619,0.329012 5.394063,1.826371 1.194636,1.101179 1.540378,1.877909 1.81896,4.086389 0.170035,1.34796 0.158483,1.3782 -0.695235,1.81967 -0.697949,0.36092 -1.311793,0.42006 -3.131161,0.30164 -2.9263,-0.19046 -7.444142,-1.33794 -9.195798,-2.33563 -4.363508,-2.48532 -5.008822,-7.631317 -1.334532,-10.642119 1.50123,-1.230146 3.928666,-2.254677 5.75377,-2.428454 0.218281,-0.02078 0.623229,-0.136446 0.899882,-0.257027 0.276654,-0.120581 1.437381,-0.22936 2.579397,-0.241732 1.142016,-0.01237 2.076521,-0.111791 2.07668,-0.220932 1.61e-4,-0.10914 0.327713,-0.199366 0.727895,-0.200502 0.59218,-0.0017 2.771138,-0.466677 5.083984,-1.08494 0.69016,-0.184492 2.16442,-1.890734 1.87969,-2.175467 -0.17249,-0.172496 0.23061,-0.793374 1.18291,-1.821969 1.77845,-1.920948 1.88323,-2.987835 0.25394,-2.585864 -0.14552,0.0359 -1.21709,0.09578 -2.38125,0.133059 -1.164169,0.03728 -2.235732,0.100438 -2.381253,0.140352 -0.145521,0.03991 -0.471416,-0.01802 -0.724209,-0.128732 -0.398,-0.17431 -2.374882,0.103854 -6.419541,0.903285 -4.625554,0.914245 -10.721208,5.573976 -12.470329,9.532757 -0.442539,1.001597 -0.897178,3.644165 -0.647462,3.763341 0.23331,0.111347 1.082043,2.649535 1.080559,3.231473 -0.0011,0.453511 -0.09162,0.426 -0.785651,-0.238924 -0.43139,-0.413298 -0.722019,-0.852292 -0.645846,-0.975543 0.07618,-0.123253 0.02707,-0.224097 -0.109117,-0.224097 -0.340807,0 -1.304914,-2.335789 -1.365096,-3.307292 -0.228174,-3.683271 0.30975,-5.550028 2.30528,-7.999999 1.111629,-1.36478 1.205815,-1.600643 1.322184,-3.311036 l 0.125293,-1.841578 -1.151781,0.188136 c -1.297993,0.212019 -2.809251,1.03058 -3.396861,1.839883 -0.216146,0.297694 -0.708626,1.207938 -1.094396,2.022765 -0.95988,2.027449 -2.004211,2.415837 -1.667325,0.620078 0.394644,-2.103625 -2.313453,-3.895166 -4.004612,-2.649249 -0.498107,0.366968 -0.488069,0.404858 0.332896,1.256771 1.106766,1.148487 1.563005,2.317731 1.788118,4.582563 0.285903,2.876424 1.03391,4.192623 4.286425,7.542437 2.977798,3.066878 3.270223,3.437771 2.710463,3.437771 -1.037387,0 -9.322486,-6.661064 -11.256569,-9.050072 -0.701222,-0.866159 -3.652732,-3.398958 -5.94269,-5.09964 -2.601926,-1.932371 -7.018621,-4.10298 -8.855964,-4.352313 -1.340501,-0.181909 -1.435685,-0.158302 -1.436235,0.356206 -5.29e-4,0.491344 -0.165772,0.55399 -1.525625,0.57838 -1.672582,0.03 -2.727872,0.468464 -4.165526,1.73074 l -0.936384,0.822156 1.000615,0.73586 c 1.146892,0.843434 3.907832,1.843267 5.089996,1.843267 0.969459,0 1.059259,0.407257 0.140639,0.637816 -0.727004,0.182466 -0.838907,0.480508 -0.330729,0.880866 0.181901,0.143307 1.640416,0.767643 3.241146,1.387412 3.003383,1.162848 6.09137,2.517163 10.451042,4.583566 4.319397,2.047315 8.976108,3.943015 13.096875,5.331611 3.340833,1.12577 3.96875,1.42081 3.96875,1.86482 0,0.44335 -0.147653,0.51327 -0.926042,0.43853 -0.509323,-0.0489 -1.640416,-0.26314 -2.513541,-0.47605 -0.873125,-0.21293 -1.944688,-0.45047 -2.38125,-0.52787 -0.436563,-0.0774 -1.686719,-0.38316 -2.778126,-0.67945 -3.048005,-0.82746 -3.75081,-1.01437 -4.894791,-1.301742 -2.125679,-0.533974 -6.201162,-1.056976 -11.126513,-1.427853 -5.505238,-0.414541 -6.772923,-0.726157 -8.429662,-2.072127 -0.594731,-0.483171 -1.768613,-1.315273 -2.608631,-1.849115 -2.344713,-1.490095 -6.715339,-5.578477 -7.051058,-6.595721 -0.345467,-1.046773 -0.23907,-3.284238 0.194011,-4.079904 0.173008,-0.317855 0.31456,-0.956369 0.31456,-1.418919 v -0.841002 l -1.843214,0.104151 c -1.582021,0.08939 -1.95284,0.209177 -2.616811,0.845302 -0.487575,0.467127 -0.83901,0.635307 -0.950524,0.454873 -0.307197,-0.497055 -0.613566,-0.313631 -0.913567,0.546954 -0.44432,1.274574 -0.346792,2.341987 0.350896,3.840443 0.966713,2.076255 3.319711,4.242044 6.117214,5.630521 1.303251,0.646839 2.488611,1.204965 2.634131,1.24028 0.777907,0.188783 4.485778,1.69901 4.701842,1.915074 0.488217,0.488217 -0.08874,0.848347 -1.084453,0.676894 -1.735828,-0.298889 -5.462506,-1.228286 -5.734055,-1.430014 -0.145521,-0.108104 -0.676963,-0.274946 -1.180984,-0.370761 -3.111156,-0.591433 -8.002955,-4.053975 -11.6513078,-8.247096 -1.813741,-2.084567 -3.351726,-3.496609 -3.548088,-3.257541 -0.042921,0.05226 -0.19651,0.315668 -0.341308,0.585361 -0.245766,0.457747 -0.325515,0.435699 -1.199423,-0.331603 -1.199402,-1.053088 -2.428882,-1.559995 -4.32390397,-1.782717 l -1.51426503,-0.177973 0.188282,1.41934 c 0.246433,1.8577 1.09834103,3.803317 1.83884803,4.199624 0.324753,0.173803 0.73597097,0.549005 0.91381697,0.833783 0.282313,0.452055 0.238749,0.549945 -0.34321797,0.771208 -0.874911,0.332641 -0.830198,0.573368 0.20193697,1.087199 0.468204,0.233087 2.005137,1.023475 3.415407,1.756417 1.410269,0.732943 3.196207,1.521856 3.96875,1.753141 4.8879978,1.463375 10.2906918,2.586755 14.3027858,2.973973 0.909656,0.08779 1.832514,0.27138 2.050796,0.407969 0.266263,0.166616 0.09548,0.190061 -0.518951,0.07124 -0.503706,-0.09741 -1.499061,-0.163968 -2.211899,-0.147908 -1.675534,0.03775 -6.09877,-0.627813 -7.531269,-1.133228 -0.61323,-0.216361 -1.114965,-0.347446 -1.114965,-0.291299 0,0.05615 -0.386953,-0.01651 -0.859896,-0.161481 C 12.177979,94.9921 11.433838,94.810217 10.997275,94.732877 9.4072552,94.451194 6.1907402,93.299928 4.3826922,92.365364 c -1.018646,-0.52653 -2.536693,-1.307589 -3.373438,-1.735687 -0.83674497,-0.428099 -1.52135397,-0.82554 -1.52135397,-0.883202 0,-0.05766 0.13388,-0.398676 0.297512,-0.757807 0.249021,-0.546542 0.202315,-0.786658 -0.286567,-1.473229 -0.71445203,-1.003354 -1.48766703,-3.158288 -1.73643703,-4.839406 -0.177597,-1.20016 -0.154323,-1.263935 0.560451,-1.535692 1.00273303,-0.381238 4.155687,0.317303 5.473242,1.212605 0.819785,0.557059 1.053636,0.609868 1.491029,0.336712 0.707073,-0.441575 1.727718,0.320412 4.316937,3.222911 2.8589578,3.204875 4.2705338,4.469084 6.7363818,6.033112 1.192493,0.756371 2.219751,1.375221 2.28279,1.375221 0.06304,0 0.575646,0.199644 1.139122,0.443654 0.563472,0.24401 1.14356,0.468551 1.289081,0.49898 0.443278,0.09269 3.092935,0.921096 4.543751,1.42059 0.773507,0.266306 1.518187,0.37888 1.712378,0.258865 0.273169,-0.168828 0.263771,-0.236569 -0.04584,-0.330379 -3.814251,-1.155721 -7.627437,-2.991925 -9.70621,-4.673938 -2.823292,-2.284431 -3.951041,-5.41042 -2.995941,-8.304399 0.275109,-0.83359 0.425763,-0.977111 0.896462,-0.85402 0.313153,0.08189 1.055513,-0.08912 1.662578,-0.382995 1.220914,-0.591035 4.444082,-0.767808 4.940906,-0.270982 0.206634,0.206634 0.196077,0.677319 -0.03761,1.676883 -0.178683,0.764289 -0.38944,2.085181 -0.468349,2.935316 -0.126241,1.36005 -0.06182,1.66352 0.536324,2.526645 0.837787,1.20893 4.673465,4.564596 7.163636,6.267153 1.018646,0.696461 2.233001,1.526882 2.698567,1.845385 0.940644,0.643511 3.873675,1.175041 6.506512,1.179123 3.942035,0.0061 8.804217,0.802413 16.284819,2.667037 4.124029,1.02796 7.557273,1.80998 7.629433,1.73782 0.20122,-0.20122 -0.727943,-0.61333 -1.832351,-0.81269 -0.545703,-0.0985 -0.992188,-0.2998 -0.992188,-0.44732 0,-0.14751 -0.105386,-0.20308 -0.23419,-0.12347 -0.245214,0.15155 -1.460739,-0.18615 -2.808518,-0.780282 -0.436563,-0.192445 -1.567656,-0.613145 -2.513542,-0.934892 -0.945885,-0.321746 -2.434167,-0.914072 -3.307292,-1.316278 -0.873125,-0.402209 -3.373437,-1.557499 -5.55625,-2.567313 -2.182812,-1.009814 -5.3975,-2.40351 -7.14375,-3.097103 -4.905321,-1.948342 -5.096514,-2.035367 -5.693385,-2.591437 -0.30811,-0.28705 -0.502435,-0.672445 -0.431834,-0.856434 0.08095,-0.210965 -0.278892,-0.455967 -0.974249,-0.663318 -1.508609,-0.449857 -4.674492,-2.328436 -4.674492,-2.773761 0,-0.199495 0.542386,-0.840145 1.205302,-1.423667 1.265528,-1.113963 3.094257,-1.891662 4.464227,-1.898491 0.447019,-0.0022 0.991357,-0.119468 1.209638,-0.260532 0.288388,-0.18637 0.302199,-0.257588 0.05053,-0.260532 -0.190489,-0.0022 -0.272759,-0.123114 -0.182821,-0.268635 0.452265,-0.731779 3.787335,0.09914 7.132674,1.777076 3.766085,1.888973 6.267014,3.883175 12.711076,10.135621 3.29016,3.192326 5.399167,5.049587 6.416146,5.650271 0.444871,0.262763 0.419555,0.0204 -0.04307,-0.412298 -4.117842,-3.851591 -5.375671,-5.636169 -5.587613,-7.927587 -0.27102,-2.930158 -1.223851,-5.17364 -2.386835,-5.61992 -0.210651,-0.08083 -0.383003,-0.435437 -0.383003,-0.788006 0,-0.501444 0.231624,-0.733711 1.063689,-1.066637 0.585028,-0.234082 1.46886,-0.425603 1.964073,-0.425603 1.130276,0 2.441239,1.052152 2.747076,2.20475 l 0.222351,0.837958 0.692565,-1.354597 c 0.950421,-1.858944 1.919079,-2.60146 3.90293,-2.991759 2.170126,-0.426946 2.503051,-0.141793 2.44117,2.090875 -0.04861,1.753626 -0.305824,2.406594 -1.40961,3.578398 -0.411223,0.436562 -1.081545,1.508125 -1.489607,2.38125 -0.653812,1.398958 -0.740449,1.886024 -0.729469,4.101041 0.01098,2.215595 0.09934,2.681317 0.745392,3.928912 0.403114,0.778455 0.793239,1.355066 0.866947,1.281359 0.07371,-0.07371 -0.07274,-0.53203 -0.325448,-1.018495 -0.722146,-1.390174 -0.704871,-4.031455 0.03691,-5.643002 1.435172,-3.117956 4.528979,-6.165077 8.070189,-7.948401 1.889096,-0.951333 5.397923,-2.030753 8.181409,-2.516843 0.94207,-0.164517 1.934242,-0.417604 2.204823,-0.562414 0.355431,-0.190222 0.614357,-0.157778 0.932977,0.116906 0.359166,0.309642 0.981122,0.341721 3.351425,0.172858 1.60073,-0.114038 3.19651,-0.294284 3.54617,-0.400545 0.61916,-0.188158 0.63105,-0.16376 0.45546,0.934338 -0.21529,1.346313 -0.66437,2.267286 -1.59374,3.268439 -0.37846,0.407679 -0.6881,0.964068 -0.6881,1.236418 0,0.724933 -1.38405,1.988713 -3.03153,2.768096 -1.4157,0.669734 -2.132721,0.805779 -8.477842,1.608567 -6.951655,0.879526 -9.895861,2.798202 -10.138386,6.606964 -0.09316,1.463053 -0.01381,1.866757 0.557942,2.838828 1.295877,2.203177 3.028773,3.228717 7.199194,4.260527 3.673605,0.9089 5.691328,1.09023 6.831282,0.61392 0.913435,-0.38165 0.91403,-0.38305 0.651143,-1.53245 -0.54365,-2.37694 -1.700872,-3.995893 -3.1168,-4.36041 -0.363802,-0.09366 -0.803955,-0.282257 -0.978117,-0.419108 -0.540194,-0.424465 -3.221194,-0.459176 -4.190317,-0.05425 -1.593525,0.665818 -1.975316,0.529052 -1.975316,-0.707597 0,-1.434425 0.727691,-2.408433 2.435005,-3.259223 1.463988,-0.729535 3.995018,-0.943217 4.972955,-0.419841 0.396415,0.212154 0.528125,0.156891 0.666705,-0.27974 0.172961,-0.544952 1.312117,-1.15963 1.702248,-0.918517 0.114128,0.07053 0.286181,0.721338 0.382341,1.446227 0.09616,0.724889 0.274116,1.379338 0.395457,1.454331 0.12134,0.07499 0.371485,0.675198 0.555881,1.333791 0.184394,0.658593 0.422675,1.197441 0.529514,1.197441 0.106839,0 0.402915,-0.565547 0.657947,-1.256771 0.255032,-0.691224 0.729165,-1.67349 1.053627,-2.182813 0.324457,-0.509322 0.973407,-1.544244 1.442107,-2.299826 1.7784,-2.866918 6.37454,-6.619539 10.47392,-8.551673 4.17497,-1.967759 7.0543,-2.731024 12.56771,-3.331501 6.35248,-0.691862 12.23518,-0.493985 16.80104,0.565139 9.89455,2.295197 12.23595,2.610875 17.70933,2.387644 2.46409,-0.100498 5.13992,-0.304685 5.94629,-0.453751 0.80636,-0.149065 1.70732,-0.303847 2.00213,-0.343961 0.2948,-0.04011 0.7146,-0.137457 0.93288,-0.216319 0.21828,-0.07886 2.30187,-0.526237 4.63021,-0.994165 3.40253,-0.683812 5.10617,-0.87696 8.68091,-0.984185 4.28067,-0.128399 4.45278,-0.113571 4.58579,0.395098 0.12216,0.467122 0.41994,0.54348 2.56388,0.657453 1.71803,0.09133 2.85019,0.308493 3.88087,0.744398 1.58694,0.671159 3.43959,1.983392 3.43959,2.436261 0,0.503433 -1.63139,1.760777 -2.88471,2.223303 -0.66899,0.24688 -1.3354,0.532093 -1.48092,0.633806 -0.14552,0.101714 -0.85989,0.33374 -1.5875,0.515615 -1.27115,0.317741 -1.91532,0.272782 -5.42396,-0.378558 -0.21828,-0.04052 -0.75406,-0.221707 -1.19062,-0.402633 -1.05504,-0.437243 -2.29787,-0.483884 -2.43632,-0.09143 -0.0666,0.188907 0.34752,0.434235 1.03014,0.610196 2.21308,0.570472 2.8827,0.845772 3.67136,1.509385 0.68743,0.578434 1.57128,1.876161 1.57128,2.307062 0,0.335548 -1.58566,0.904068 -3.04271,1.090933 -3.83176,0.491417 -4.12285,0.425826 -9.14614,-2.060886 -2.5367,-1.255766 -5.6638,-2.648204 -6.94909,-3.094307 -2.6228,-0.910331 -5.20373,-1.330436 -5.20373,-0.847025 0,0.165556 0.28512,0.301011 0.63359,0.301011 2.55427,0 7.11912,2.629781 11.15029,6.423614 2.33202,2.194728 2.39715,2.233862 3.92893,2.3606 1.27987,0.105897 1.79546,0.01413 2.89166,-0.514702 1.23109,-0.593894 2.39018,-0.857573 7.45699,-1.696367 1.01865,-0.168634 2.85213,-0.674781 4.07441,-1.124772 1.7457,-0.642691 2.51177,-1.102313 3.57188,-2.14304 0.74225,-0.728681 1.57925,-1.800244 1.86001,-2.38125 0.84842,-1.755766 2.3182,-3.814883 2.84161,-3.981006 0.27105,-0.08603 1.07033,-0.743101 1.77616,-1.460162 0.71916,-0.730587 1.52466,-1.303748 1.83225,-1.303748 0.3019,0 0.62249,-0.119063 0.71243,-0.264584 0.23067,-0.373239 1.33721,-0.329217 1.66263,0.06615 0.14972,0.181901 0.35523,0.888394 0.45669,1.569984 0.23101,1.551913 -0.52558,3.335446 -2.37134,5.590057 -0.69234,0.845704 -1.20506,1.591383 -1.13938,1.657062 0.0657,0.06568 0.57081,-0.239307 1.12252,-0.677749 0.77447,-0.61547 1.27015,-0.797166 2.17474,-0.797166 1.46576,0 2.07307,0.319304 2.6204,1.377727 0.40405,0.781347 0.40109,0.854522 -0.0478,1.182782 -0.26319,0.192449 -0.79101,0.349907 -1.17293,0.349907 -0.38193,0 -1.6391,0.481405 -2.79371,1.069789 -1.15461,0.588383 -2.93273,1.292013 -3.95137,1.563622 -1.01865,0.271609 -2.75442,0.744328 -3.85727,1.050488 -2.14353,0.595062 -2.8659,0.694236 -6.99065,0.959734 -7.70531,0.495973 -3.38799,0.715304 12.80325,0.650436 8.67369,-0.03475 10.65816,-0.510103 12.40928,-2.972478 0.87033,-1.223829 0.88287,-1.279812 0.59272,-2.645833 -0.42817,-2.015842 -1.7593,-3.379924 -3.29827,-3.379924 -0.56967,0 -0.67885,-0.121063 -0.67885,-0.752743 0,-1.172711 0.78289,-1.698601 2.3655,-1.58897 1.47976,0.102506 1.47775,0.104285 0.94179,-0.833287 -0.49758,-0.870423 -0.49471,-2.218345 0.007,-3.18814 0.47654,-0.921533 0.59407,-0.929405 2.56259,-0.171647 1.76873,0.680852 3.9129,2.3756 3.9129,3.092757 0,0.750458 0.39807,0.850429 0.95145,0.238948 1.07435,-1.187145 3.21636,-1.628899 4.28134,-0.882957 0.61414,0.430157 0.79737,1.544189 0.30412,1.849033 -0.15616,0.09651 -0.81462,1.288529 -1.46326,2.64893 -1.43918,3.018453 -3.1883,5.010327 -5.60674,6.384887 -0.97581,0.554618 -1.99021,1.096686 -2.25422,1.204596 -0.26401,0.10791 -0.41288,0.304845 -0.33081,0.437631 0.0831,0.134385 0.7577,0.01021 1.52161,-0.280037 5.12879,-1.948789 9.34429,-5.056624 10.70922,-7.895279 0.31464,-0.65437 0.9391,-1.977027 1.38769,-2.939239 0.83795,-1.797393 2.58248,-3.509514 3.91731,-3.844535 1.54982,-0.38898 3.25104,0.566399 3.25104,1.825732 0,0.562879 -0.62201,1.621836 -1.5529,2.643799 -1.26781,1.391828 -0.12873,0.716623 1.67729,-0.994242 2.09637,-1.985924 4.05125,-3.022421 6.49019,-3.441173 2.85486,-0.490161 5.3547,0.275662 4.56235,1.397671 -0.17791,0.251931 -0.56778,0.909481 -0.86639,1.461222 -0.2986,0.551741 -0.986,1.444709 -1.52756,1.984375 -1.16036,1.156314 -4.15257,2.814118 -4.59061,2.543391 -0.18918,-0.116915 -0.23354,-0.0725 -0.11659,0.11673 0.10499,0.169881 0.0351,0.313718 -0.15756,0.32406 -0.19049,0.01023 -0.10822,0.113039 0.18282,0.22847 0.29104,0.11543 0.59287,0.11168 0.67073,-0.0083 0.26409,-0.40707 2.08597,-1.032482 3.00771,-1.032482 1.9481,0 3.98258,1.475876 4.28946,3.111705 0.22439,1.196082 -0.14812,1.502225 -1.72596,1.41848 -0.7293,-0.03871 -2.53871,0.228606 -4.10923,0.607081 -3.09938,0.74691 -10.03082,1.741216 -12.15152,1.743118 -1.77642,0.0016 -8.24299,0.95619 -8.83511,1.304241 -0.32869,0.193199 -0.0438,0.215538 0.99455,0.07797 2.19431,-0.290729 12.29934,-0.167174 14.50722,0.177385 3.83049,0.597773 6.80296,1.964963 9.83444,4.523344 0.80037,0.67546 1.66357,1.30552 1.91823,1.40013 0.53375,0.19829 0.60258,0.73698 0.15177,1.18779 -0.2386,0.23861 -0.20186,0.43212 0.15745,0.82915 1.09478,1.20972 1.59025,4.43262 0.83932,5.45956 -0.36656,0.50131 -0.39194,0.50014 -1.51387,-0.0696 -1.00435,-0.51005 -1.19201,-0.53338 -1.56625,-0.19469 -0.23386,0.21163 -0.53488,0.38161 -0.66894,0.37774 -0.42848,-0.0124 -3.28621,-2.29119 -5.86846,-4.6796 -3.08215,-2.85078 -3.7583,-3.31567 -6.30623,-4.33592 -3.08381,-1.23481 -10.80271,-2.59552 -11.39032,-2.007909 -0.10041,0.100409 0.10791,0.182562 0.46292,0.182562 0.89279,0 5.2798,1.155617 7.49173,1.973457 2.73392,1.01084 8.23717,3.96126 10.33953,5.54326 3.09807,2.33126 6.33957,5.58248 7.2216,7.24325 1.66492,3.13485 1.9441,4.47407 1.96666,9.4337 l 0.0205,4.51362 -0.96637,2.84823 c -1.16571,3.43575 -1.29876,5.92887 -0.43734,8.19529 0.75516,1.98684 0.70789,2.31815 -0.3306,2.31695 -1.34376,-0.002 -2.54245,-0.89528 -3.19583,-2.3828 -0.6409,-1.45912 -0.85203,-1.59626 -1.11623,-0.72506 -0.37458,1.23523 -2.10724,2.57968 -3.32455,2.57968 -0.32191,0 -1.14118,0.35672 -1.8206,0.7927 -0.67941,0.43598 -1.79369,0.86923 -2.47617,0.96278 -1.0701,0.14667 -1.47546,0.051 -2.94546,-0.69513 -0.93752,-0.47586 -1.90208,-1.08343 -2.14346,-1.35014 -0.35038,-0.38718 -0.67456,-0.45264 -1.60794,-0.32471 -1.01211,0.13873 -1.43811,0.022 -3.17278,-0.8694 -1.80757,-0.92885 -2.13375,-1.22313 -3.33236,-3.00645 -1.2061,-1.79446 -1.35071,-2.17274 -1.56781,-4.10104 -0.26161,-2.32362 -0.16079,-3.0676 0.55458,-4.09247 0.63076,-0.90364 0.89345,-2.98259 0.4764,-3.77024 -0.61416,-1.15993 -1.98829,-2.99449 -2.70529,-3.61176 -0.91364,-0.78656 -0.59394,-1.1449 1.02142,-1.1449 1.28052,0 3.28015,0.82887 4.04887,1.6783 0.37975,0.41962 0.71789,0.45861 2.70936,0.31246 1.2515,-0.0918 2.50772,-0.28674 2.79158,-0.4331 0.28387,-0.14635 1.11161,-0.30435 1.83942,-0.35109 0.72781,-0.0467 1.91873,-0.34114 2.6465,-0.65422 1.47959,-0.6365 3.42327,-0.58062 4.43422,0.12747 0.53085,0.37182 0.65893,0.31037 2.17846,-1.04519 1.63532,-1.45886 2.09883,-1.6786 2.42557,-1.14992 0.26981,0.43657 0.17568,2.4858 -0.16667,3.62847 -0.26901,0.89789 -0.21863,1.19778 0.47724,2.84082 0.93625,2.2106 1.40852,2.34212 2.5546,0.71146 0.70401,-1.00169 0.80356,-1.38738 0.90484,-3.50573 0.0771,-1.61223 0.0207,-2.38022 -0.17484,-2.38022 -0.15876,0 -0.21929,-0.18073 -0.13453,-0.40162 0.37526,-0.9779 -1.69598,-4.48377 -4.06659,-6.88332 -2.5014,-2.53192 -4.06042,-3.57738 -8.67185,-5.81524 -4.43789,-2.15364 -8.59641,-3.5593 -15.34583,-5.18721 -4.8008,-1.157907 -5.15938,-1.210908 -5.15938,-0.76261 0,0.14552 0.11247,0.26459 0.24993,0.26459 0.3077,0 3.72454,1.60879 5.19756,2.44723 1.66238,0.94623 2.8897,2.00364 6.18187,5.32608 1.96782,1.98592 3.55588,3.33834 4.52905,3.85704 2.09243,1.11525 2.32722,1.4465 1.7447,2.46149 -0.52581,0.91616 -0.43266,1.06583 0.93523,1.50276 0.88778,0.28358 2.59291,1.83901 2.59291,2.36526 0,0.41783 -0.94407,1.03959 -2.30185,1.51597 -1.23713,0.43405 -1.53052,0.44663 -2.91042,0.1248 -0.84403,-0.19685 -2.07038,-0.37151 -2.72523,-0.38813 -1.52027,-0.0386 -2.68381,-0.76061 -4.70146,-2.91748 -1.28711,-1.37594 -2.01441,-2.57081 -3.98383,-6.54499 -2.34503,-4.73216 -4.18332,-7.40317 -5.62681,-8.1757 -0.71638,-0.3834 -0.63742,0.0793 0.17916,1.04971 0.37605,0.44691 0.91738,1.43831 1.20296,2.20312 0.53819,1.44133 0.54137,1.81091 0.11061,12.85967 -0.0769,1.97238 -0.25688,2.14723 -2.21608,2.15287 -1.20786,0.004 -1.52002,-0.10656 -2.18282,-0.76935 -0.42537,-0.42537 -0.78713,-1.05045 -0.80391,-1.38906 -0.063,-1.27102 -0.11294,-1.40293 -0.56422,-1.49052 -0.27904,-0.0542 -1.07084,0.49055 -1.9965,1.37348 -2.5432,2.42581 -3.9373,2.81082 -8.58741,2.37165 -1.614,-0.15243 -1.78594,-0.22485 -1.78594,-0.75217 0,-1.00938 1.45381,-2.69196 2.89865,-3.3548 0.73408,-0.33676 1.33468,-0.67338 1.33468,-0.74804 0,-0.0747 -0.52081,-0.0943 -1.15736,-0.0437 -1.23733,0.0984 -2.81139,-0.51438 -2.81139,-1.09449 0,-0.56962 0.79054,-1.49197 1.66971,-1.94815 0.90061,-0.46729 1.14833,-0.52066 4.01884,-0.86585 4.16384,-0.50071 6.02676,-1.2973 7.64104,-3.26733 1.02067,-1.24558 1.48708,-2.26442 1.48708,-3.24839 0,-0.98068 -0.40791,-0.76937 -0.75571,0.39149 -0.43147,1.44011 -1.95572,2.86904 -4.13908,3.88024 -1.62803,0.75401 -3.69088,1.3644 -3.89727,1.15319 -0.0393,-0.0402 -0.34371,0.0725 -0.67643,0.2506 -0.84391,0.45165 -4.88915,0.39463 -6.75015,-0.0951 -0.84384,-0.22208 -1.5939,-0.40378 -1.66679,-0.40378 -0.0729,0 -0.065,0.92273 0.0175,2.05052 0.12544,1.71481 0.0514,2.32761 -0.45221,3.74295 -0.33122,0.93084 -0.80953,1.79404 -1.0629,1.91823 -0.25338,0.12419 -0.66904,0.34791 -0.92371,0.49716 -2.73285,1.60161 -5.71536,2.3358 -6.04105,1.48709 -0.14143,-0.36856 0.39958,-1.86003 1.24332,-3.42766 0.18826,-0.34977 0.12084,-0.70583 -0.25049,-1.32292 -0.60496,-1.00533 -0.52213,-1.34428 0.62657,-2.56412 0.47962,-0.50932 1.00825,-1.44202 1.17472,-2.07266 0.32134,-1.21731 0.1492,-2.68984 -0.31445,-2.68984 -0.16663,0 -0.22168,-0.34817 -0.13729,-0.86823 0.12595,-0.77608 -0.0108,-1.0211 -1.28829,-2.30885 -1.00293,-1.01095 -1.4292,-1.64851 -1.4292,-2.13762 0,-0.5852 -0.26522,-0.83741 -1.65364,-1.57247 -0.90951,-0.48152 -2.09581,-1.151711 -2.63624,-1.48933 -0.67033,-0.418774 -1.5895,-0.670258 -2.89235,-0.791347 l -1.90976,-0.177493 2.62767,2.70898 c 2.24458,2.31404 4.08307,4.65493 4.08307,5.19884 0,0.0834 0.35719,0.67071 0.79375,1.30523 0.94551,1.37424 1.00025,2.07432 0.20572,2.63083 -0.89072,0.62388 -2.36322,0.5136 -3.5071,-0.26266 -1.29997,-0.88218 -1.44039,-0.69073 -0.27272,0.37182 0.509,0.46319 1.12223,1.28633 1.36273,1.82921 0.52656,1.18863 0.95938,7.15762 0.556,7.66778 -0.55113,0.69703 -3.44634,0.0782 -5.09069,-1.08803 -0.43611,-0.30932 -0.92283,-0.53257 -1.08158,-0.49612 -0.30649,0.0704 -2.15482,-2.00211 -2.7756,-3.11221 -0.20345,-0.3638 -0.43102,-1.46734 -0.50573,-2.45231 -0.18985,-2.50325 -0.68118,-2.27833 -0.59967,0.27451 0.0841,2.63251 -0.5353,4.42676 -1.52806,4.42676 -0.50955,0 -0.78668,-0.26287 -1.25522,-1.19062 -0.74145,-1.46812 -0.66775,-3.50574 0.2201,-6.08542 1.23351,-3.58402 0.64282,-11.377081 -0.86236,-11.377081 -0.40545,0 -0.48618,0.110704 -0.33764,0.463021 1.5376,3.64712 0.97785,10.80866 -1.06165,13.58293 -0.36512,0.49665 -0.87234,1.23446 -1.12717,1.63957 -0.34828,0.55369 -0.5947,0.69296 -0.99248,0.56096 -0.29104,-0.0966 -0.82682,-0.15646 -1.19063,-0.13307 -0.3638,0.0234 -1.81499,0.10638 -3.22487,0.18441 l -2.56341,0.14189 0.22965,-0.74538 c 0.38695,-1.25588 0.82288,-3.59907 0.87703,-4.71413 0.0589,-1.21258 0.37252,-1.70841 2.0462,-3.23488 1.65112,-1.5059 2.45887,-3.20548 2.59114,-5.45205 0.0585,-0.99427 0.003,-1.907432 -0.12308,-2.029257 -0.12624,-0.121824 -0.88437,-0.260831 -1.68474,-0.308903 l -1.45521,-0.0874 -0.19311,2.91041 c -0.29195,4.39997 -1.70971,8.24358 -4.13409,11.20766 -0.89251,1.0912 -0.91723,1.17267 -0.45768,1.5087 0.33136,0.24229 0.44441,0.57162 0.35565,1.03598 -0.10636,0.55637 0.13997,0.95089 1.34805,2.15897 l 1.4782,1.47819 -0.61387,0.49708 c -0.77063,0.62402 -3.00449,1.29939 -4.24732,1.2841 -0.51929,-0.006 -1.42041,-0.18319 -2.00249,-0.39289 -0.58209,-0.2097 -1.21866,-0.38307 -1.41461,-0.38526 -0.19595,-0.002 -0.8832,-0.4678 -1.5272,-1.03468 l -1.17093,-1.03069 -1.35872,0.51627 c -1.93287,0.73444 -3.65229,1.01806 -6.83167,1.1269 -5.22263,0.17879 -8.61674,-0.75887 -12.97923,-3.58567 -1.47565,-0.95619 -3.64062,-3.52607 -4.47962,-5.31744 -0.44272,-0.94526 -0.85994,-1.38826 -1.70492,-1.81026 -0.61531,-0.3073 -1.40166,-0.51802 -1.74745,-0.46826 -0.85657,0.12326 -2.37211,2.15227 -2.37211,3.1758 0,1.06449 -0.57459,0.85341 -0.89009,-0.32699 -0.2995,-1.12054 -0.34645,-3.06685 -0.0953,-3.94896 0.16124,-0.5662 0.0383,-0.76442 -0.85397,-1.37631 -0.8003,-0.54885 -1.08442,-0.94822 -1.22352,-1.7198 -0.0996,-0.55271 -0.29246,-1.14554 -0.42849,-1.31739 -0.40958,-0.51746 -0.57332,-3.115045 -0.23608,-3.745182 0.16854,-0.314913 0.21294,-0.585878 0.0987,-0.602145 -0.11426,-0.01627 -0.61598,-0.07608 -1.11494,-0.132916 -0.49896,-0.05684 -1.32638,-0.219083 -1.83872,-0.360545 -2.34843,-0.648433 -2.46814,2.083278 -0.2885,6.582898 1.87233,3.86519 2.46762,7.67221 1.60584,10.26958 -0.63899,1.92587 0.39088,2.35095 4.30383,1.77641 2.96712,-0.43566 5.05594,-0.17393 5.32283,0.66695 0.34456,1.08562 -1.77856,3.70364 -2.69218,3.31974 -0.26335,-0.11066 -2.10881,-0.23539 -4.10103,-0.27717 -5.06727,-0.10629 -8.52777,-1.09341 -12.55199,-3.58052 -0.89488,-0.55307 -0.97275,-0.56125 -1.21539,-0.12768 -0.14258,0.25478 -0.6638,0.63228 -1.15826,0.83888 -0.49447,0.20659 -0.89902,0.4769 -0.89902,0.60068 0,0.12378 -0.48835,0.56347 -1.085218,0.9771 l -1.085218,0.75206 -1.163741,-1.28559 c -0.640059,-0.70707 -1.163743,-1.54597 -1.163743,-1.86422 0,-0.36547 -0.251857,-0.6934 -0.683644,-0.89013 l -0.683644,-0.31149 0.74979,-0.93863 c 1.186288,-1.48507 2.035749,-2.37468 2.529631,-2.6492 0.423661,-0.23548 0.409628,-0.34739 -0.192754,-1.53725 -0.357325,-0.70581 -0.721548,-1.66637 -0.809385,-2.13458 l -0.159702,-0.85129 -2.028793,0.1167 c -1.725256,0.0992 -2.393651,0.29288 -4.467474,1.29424 -2.474344,1.19475 -4.808636,1.77807 -5.936147,1.48339 -1.130771,-0.29554 -2.340795,-1.16388 -2.340795,-1.67981 0,-0.43782 0.203583,-0.50303 1.570275,-0.50303 0.863653,0 1.845919,-0.115 2.182813,-0.25554 0.792025,-0.33042 1.668918,-1.02524 1.503132,-1.19102 -0.364551,-0.36455 -4.919559,-1.47291 -5.477597,-1.33285 -0.352097,0.0884 -0.98211,0.5026 -1.400024,0.92052 -0.646933,0.64693 -0.759701,0.96929 -0.75886,2.16926 0.0011,1.64341 0.556718,2.72043 1.952432,3.785 0.814819,0.62149 1.126432,0.70165 2.337631,0.60133 0.76862,-0.0637 1.778479,-0.27734 2.24413,-0.47485 0.745895,-0.31638 0.905793,-0.30558 1.34375,0.0908 0.27341,0.24743 0.702008,0.44987 0.952436,0.44987 1.296408,0 3.430638,1.71558 3.898744,3.13396 0.273892,0.82989 0.24846,0.97471 -0.236259,1.34542 -0.298755,0.22848 -0.925854,0.71307 -1.393553,1.07687 -1.236911,0.96214 -1.807226,1.22477 -3.382269,1.55758 -1.793214,0.37889 -4.413991,0.001 -6.29179,-0.90654 -3.570171,-1.72601 -5.648317,-5.88664 -4.567414,-9.14437 0.164126,-0.49465 0.432017,-1.01887 0.595312,-1.16492 0.163296,-0.14604 0.327332,-0.4437 0.364527,-0.66145 0.03719,-0.21776 -0.734933,0.49705 -1.715836,1.58845 -4.84758,5.39369 -7.650017,7.74873 -11.316372,9.5098 -1.617131,0.77675 -2.185157,0.90541 -4.477618,1.01419 -2.212459,0.10498 -2.674922,0.057 -2.939447,-0.30472 -0.172651,-0.23612 -0.935778,-0.54724 -1.695836,-0.69138 -2.516373,-0.47722 -5.577068,-2.20539 -5.566704,-3.14314 0.0054,-0.49052 1.526728,-1.81923 2.905646,-2.53778 0.509323,-0.26541 1.104635,-0.5871 1.322917,-0.71487 1.470469,-0.86076 2.463202,-1.07185 6.059053,-1.28839 2.124552,-0.12794 4.696259,-0.41065 5.714905,-0.62823 2.161125,-0.46163 5.942775,-1.90735 7.732152,-2.95599 1.296768,-0.75996 1.207217,-1.22612 -0.107445,-0.55932 -1.143042,0.57976 -5.028456,1.77909 -7.09554,2.19022 -2.869668,0.57075 -8.07302,0.73486 -11.377084,0.35881 -1.600729,-0.18218 -3.891079,-0.34255 -5.089668,-0.35636 -1.690243,-0.0195 -2.165207,-0.10653 -2.116666,-0.38788 0.03742,-0.21691 -0.362887,-0.49438 -0.995749,-0.69018 -1.722914,-0.53303 -4.894792,-2.24636 -4.894792,-2.64398 0,-0.41068 1.101842,-1.26453 2.432047,-1.88468 0.481386,-0.22442 1.199153,-0.58323 1.595044,-0.79736 1.560952,-0.84427 6.256972,-0.98891 11.054159,-0.34048 1.091407,0.14753 2.452386,0.31881 3.024402,0.38062 0.572014,0.0618 1.107795,0.20365 1.190625,0.31519 0.08283,0.11153 0.68638,0.23534 1.341224,0.27512 0.654843,0.0398 2.321718,0.31662 3.704166,0.6152 2.44551,0.52818 5.21869,0.65005 8.069792,0.35465 1.679872,-0.17405 3.563475,-0.56816 3.042709,-0.63664 -1.352355,-0.17781 -2.271779,-0.36396 -4.655977,-0.94268 -1.469382,-0.35666 -3.193322,-0.83254 -3.830979,-1.05752 -0.637659,-0.22498 -1.876218,-0.5173 -2.752357,-0.64959 -0.876138,-0.1323 -2.601809,-0.42471 -3.834823,-0.64981 -3.184822,-0.58141 -10.444986,-0.72959 -13.10399,-0.26745 -1.164167,0.20233 -3.426354,0.54524 -5.027084,0.76203 -3.281785,0.44444 -4.901985,0.74723 -7.011458,1.31032 -3.359179,0.89667 -3.779467,1.3127 -3.924816,3.88505 -0.09956,1.76203 -0.07277,1.85965 0.71133,2.59212 1.342546,1.25412 2.618486,1.73364 4.668694,1.75455 1.018646,0.0104 1.935422,-0.10154 2.037279,-0.24873 0.247512,-0.35768 4.100314,-0.53905 4.515109,-0.21256 0.179729,0.14147 0.683967,0.34141 1.120529,0.4443 1.119246,0.26379 2.513542,1.67613 2.513542,2.54606 0,1.75003 -5.914909,3.22677 -8.73125,2.17988 -0.218282,-0.0811 -0.650635,-0.18168 -0.960784,-0.22343 -1.108295,-0.14919 -5.6538,-2.80984 -5.6538,-3.30938 0,-0.10576 -0.208359,-0.26412 -0.463021,-0.35191 -1.14051,-0.39318 2.232899,2.25559 4.129019,3.24205 2.954856,1.53729 3.751363,2.55861 3.302691,4.23487 -0.162015,0.6053 -0.237572,0.62255 -2.179199,0.49747 -2.485289,-0.1601 -4.103573,-0.84149 -5.826876,-2.45344 -1.438717,-1.34575 -2.059467,-2.44065 -2.222503,-3.92013 -0.138218,-1.25424 -0.362069,-1.476 -0.680971,-0.67462 -0.138322,0.34761 -0.747927,1.22378 -1.354675,1.94707 -1.256746,1.49811 -2.1127978,3.04769 -2.1127978,3.82447 0,0.75411 0.7839358,1.07818 2.6081718,1.07818 1.382189,0 1.730873,0.11096 2.729373,0.8686 0.629611,0.47773 1.700914,1.07931 2.380676,1.33684 1.446998,0.5482 1.607526,0.71353 2.225942,2.29247 0.25648,0.65485 0.734492,1.51667 1.062252,1.91517 0.327761,0.39849 0.746265,1.3963 0.930008,2.21735 0.286049,1.27821 0.273664,1.66854 -0.08614,2.71505 -0.278413,0.80977 -0.374774,1.71978 -0.285549,2.69661 0.103558,1.13374 0.01278,1.72665 -0.392872,2.56628 -0.506531,1.04839 -0.508656,1.10898 -0.05333,1.52104 0.443335,0.40121 1.290073,2.14329 1.701307,3.50028 0.147312,0.48609 0.07813,0.59531 -0.377126,0.59531 -0.687245,0 -2.320475,-0.82288 -3.105081,-1.56446 -0.72874,-0.68878 -0.868892,-0.6845 -1.564423,0.0477 -0.705845,0.74303 -5.477513,2.31053 -7.033561,2.31053 -0.6503218,0 -1.4356518,-0.19564 -1.8052488,-0.44973 z m 3.3096178,-0.33602 c 0.08722,-0.14112 -0.256447,-0.42998 -0.763694,-0.64192 -0.507246,-0.21194 -1.0764668,-0.63227 -1.2649358,-0.93405 -0.409495,-0.65571 -0.824553,-0.69548 -1.387106,-0.13293 -0.5995,0.5995 -0.522186,0.85004 0.444121,1.43921 0.898815,0.54802 2.6986448,0.71136 2.9716148,0.26969 z m 212.737476,-1.13911 c 1.11129,-1.00612 1.26359,-1.27937 1.37827,-2.47293 0.11845,-1.23265 0.042,-1.46893 -0.93912,-2.9038 -1.04331,-1.52577 -2.69563,-3.31377 -2.69563,-2.91698 0,0.10955 0.12578,0.45925 0.27952,0.7771 0.26295,0.54366 0.24727,0.54089 -0.26458,-0.0467 -0.29926,-0.34354 -0.54411,-0.79003 -0.54411,-0.99218 0,-0.20216 -0.13258,-0.36757 -0.29462,-0.36757 -0.19925,0 -0.23683,0.38544 -0.11608,1.19063 0.11627,0.77534 0.0806,1.19062 -0.10225,1.19062 -0.15444,0 -0.2808,-0.2749 -0.2808,-0.61089 0,-0.33599 -0.16058,-0.83049 -0.35685,-1.0989 -0.33359,-0.45622 -0.37569,-0.43396 -0.64609,0.34172 -0.15909,0.45635 -0.70701,1.54254 -1.21762,2.41375 -1.25028,2.13329 -1.63858,3.46204 -1.2331,4.21968 0.17098,0.31948 0.92871,0.98585 1.68383,1.48082 1.09931,0.72057 1.64471,0.90261 2.73642,0.91334 1.24245,0.0122 1.47436,-0.087 2.61281,-1.1177 z M 15.712801,140.39 c 0.685261,-0.31223 2.329305,-2.53213 2.669808,-3.60496 0.432152,-1.36159 -1.309958,-3.3019 -3.521835,-3.92252 -0.895892,-0.25137 -1.692225,-0.55951 -1.769626,-0.68475 -0.0774,-0.12523 -0.320318,-0.2277 -0.539816,-0.2277 -0.289465,0 -0.350898,0.16353 -0.22365,0.59531 0.16351,0.55482 0.128001,0.54582 -0.522044,-0.13229 -0.939863,-0.98045 -1.195137,-0.91612 -1.050036,0.26458 0.109213,0.88869 0.08946,0.93009 -0.189358,0.39688 -0.300548,-0.57477 -0.7472888,-0.80465 -0.7712578,-0.39688 -0.295628,5.0295 -0.280889,5.85917 0.117777,6.63011 0.2306098,0.44595 0.5649218,0.90082 0.7429148,1.01083 1.024334,0.63307 3.740218,0.67141 5.057123,0.0714 z m 5.47025,-0.10735 c -0.440872,-1.15959 -1.009311,-2.14225 -1.451507,-2.50924 -0.366135,-0.30387 -0.509285,-0.27529 -0.980249,0.19567 -0.702921,0.70292 -0.516946,1.16611 0.872255,2.17244 1.398373,1.01298 1.908532,1.05915 1.559501,0.14113 z m 213.254859,0.25707 c 0,-0.0779 -0.20362,-0.45235 -0.45248,-0.83216 -0.3185,-0.4861 -0.48131,-1.40381 -0.54988,-3.09955 -0.10164,-2.51348 0.19854,-4.21932 1.25309,-7.12086 0.40683,-1.11937 0.56428,-2.1975 0.57957,-3.96875 0.0613,-7.09955 -0.006,-7.54874 -1.59589,-10.63314 -1.11656,-2.16626 -4.40392,-5.55272 -7.63945,-7.86974 -2.12343,-1.52061 -7.06525,-4.11598 -10.20763,-5.36087 -3.31037,-1.31144 -11.37822,-3.16338 -15.18786,-3.486298 -1.05502,-0.08943 -1.91822,-0.264189 -1.91822,-0.388358 0,-0.281835 -0.4128,-0.294836 5.03732,0.158673 2.54098,0.211439 4.79856,0.362725 5.01684,0.336193 0.63084,-0.07667 4.51458,0.354655 5.82084,0.646467 0.65484,0.146291 1.48828,0.318907 1.85208,0.383598 1.32035,0.234775 4.08434,1.210465 5.60811,1.979655 0.9523,0.48072 2.66127,1.82093 4.39158,3.44395 2.8539,2.67695 4.82846,4.20279 5.43878,4.20279 0.18188,0 0.47236,-0.14167 0.64551,-0.31482 0.24336,-0.24336 0.54879,-0.18331 1.34571,0.26459 1.26535,0.71116 1.25956,0.71115 1.44446,0.004 0.25815,-0.98717 -0.36013,-3.11817 -1.17346,-4.04451 -0.8483,-0.96615 -0.97455,-1.46556 -0.37048,-1.46556 0.21828,0 0.39687,-0.11906 0.39687,-0.26458 0,-0.14552 -0.11147,-0.26459 -0.24771,-0.26459 -0.13625,0 -0.99945,-0.65568 -1.91823,-1.45707 -2.73973,-2.389677 -5.88142,-3.748018 -9.74031,-4.211333 -4.34715,-0.521936 -13.39703,-0.616482 -15.83632,-0.165441 -1.80385,0.333539 -2.22232,0.231182 -1.59983,-0.391308 0.7291,-0.729105 5.36919,-1.655899 11.8436,-2.365596 6.28305,-0.68872 8.41375,-1.015757 11.94255,-1.833034 0.94589,-0.219069 2.35698,-0.425948 3.13578,-0.459732 1.60752,-0.06973 1.91014,-0.418482 1.24456,-1.434281 -0.81729,-1.247348 -1.94893,-1.734403 -3.85117,-1.657543 -0.94589,0.03822 -1.7835,0.157593 -1.86136,0.265278 -0.32167,0.444885 -2.01466,0.966247 -2.38591,0.734749 -0.61818,-0.385478 -0.0429,-0.991182 2.27164,-2.391721 1.15936,-0.701533 2.54808,-1.712767 3.08605,-2.247187 1.22158,-1.213504 2.12333,-3.019087 1.74116,-3.486298 -0.63541,-0.776785 -4.8088,-0.121034 -6.82033,1.071656 -0.50932,0.301991 -1.75035,1.253047 -2.75785,2.113457 -2.11393,1.80532 -2.94478,2.264444 -3.35518,1.854045 -0.19407,-0.194066 -0.0434,-0.546911 0.49965,-1.170218 2.30329,-2.643612 2.0673,-4.727149 -0.44998,-3.972953 -1.6138,0.483504 -2.8194,1.882443 -4.31597,5.008105 -0.90954,1.899617 -1.73143,3.188066 -2.58184,4.047474 -3.0685,3.100961 -10.20924,6.597912 -12.03906,5.895745 -0.81042,-0.310984 -0.357,-0.904851 1.25387,-1.64228 3.59698,-1.646629 6.19116,-4.238303 7.32513,-7.318052 0.32148,-0.873125 0.79631,-1.825625 1.05518,-2.116666 0.8847,-0.994675 0.87196,-1.15929 -0.12182,-1.574518 -1.31893,-0.551088 -2.43633,-0.06177 -3.54771,1.55356 -0.4626,0.672359 -0.93695,1.163223 -1.05412,1.09081 -0.11717,-0.07241 -0.27353,-0.668459 -0.34749,-1.324544 -0.0739,-0.656085 -0.32973,-1.490912 -0.5684,-1.855172 -0.62827,-0.958864 -3.03425,-2.27927 -3.99754,-2.193854 -0.71409,0.06332 -0.8021,0.171809 -0.87697,1.081066 -0.0536,0.651064 0.11631,1.393475 0.47753,2.086494 0.30841,0.591696 0.49842,1.238217 0.42225,1.436714 -0.16954,0.441816 -0.96074,0.464692 -1.86244,0.05385 -0.5127,-0.233602 -0.83711,-0.232693 -1.35615,0.0038 -0.86248,0.392974 -0.71344,0.87794 0.35489,1.154773 1.2933,0.335127 2.75916,2.305794 2.91403,3.91755 0.16345,1.701078 -0.25967,2.673725 -1.72372,3.962439 -2.30878,2.032265 -3.0258,2.157431 -12.63692,2.205956 -14.40485,0.07273 -19.18229,-0.116245 -19.18229,-0.758748 0,-0.481915 1.17903,-0.713756 3.43958,-0.676352 2.63456,0.04359 7.62042,-0.613939 9.92188,-1.308484 1.01865,-0.307411 2.61237,-0.726141 3.54162,-0.930511 0.92924,-0.204369 2.83424,-0.899972 4.23333,-1.545783 1.39909,-0.645811 2.93075,-1.253423 3.4037,-1.350249 1.67179,-0.342267 0.55349,-1.721502 -1.39581,-1.721502 -0.79109,0 -1.37771,0.219209 -2.19493,0.8202 -1.64777,1.211782 -2.67801,0.532705 -1.24056,-0.817708 1.27051,-1.193588 2.72323,-3.777318 2.90227,-5.161867 0.33517,-2.591724 -1.14474,-2.970558 -3.1642,-0.80999 -0.58209,0.622755 -1.32313,1.215635 -1.64678,1.317513 -0.32364,0.101877 -0.85942,0.557336 -1.19062,1.01213 -0.58767,0.806961 -0.77517,1.120211 -1.98029,3.308388 -1.04311,1.894024 -3.28337,3.837402 -4.75937,4.128672 -0.26241,0.05178 -0.89383,0.276341 -1.40315,0.499018 -0.96869,0.423514 -3.77762,1.016279 -7.14375,1.507538 -1.16855,0.170539 -2.66491,0.621422 -3.63967,1.096704 -1.29562,0.631725 -1.91365,0.783998 -2.84427,0.700773 -1.31837,-0.117901 -1.38107,-0.0505 -0.72007,0.774168 0.36367,0.453729 0.94396,0.632836 2.83838,0.876073 1.47448,0.189317 2.73389,0.515485 3.30729,0.856541 0.50933,0.30294 1.58089,0.907658 2.38125,1.343826 0.80037,0.43616 1.64318,0.95493 1.87292,1.15281 0.47824,0.41193 1.0375,0.47515 1.0375,0.11728 0,-0.13338 -0.32742,-0.49714 -0.7276,-0.80836 -0.69067,-0.53712 -0.69403,-0.54994 -0.0662,-0.25265 0.3638,0.17225 0.86538,0.49092 1.11462,0.70815 0.24925,0.21723 0.64961,0.31959 0.8897,0.22746 0.37333,-0.14326 0.38433,-0.23059 0.076,-0.60319 -0.4863,-0.58767 -2.31497,-1.397168 -3.1724,-1.404335 -0.38237,-0.0032 -0.83136,-0.169863 -0.99776,-0.370369 -0.23893,-0.28788 -0.17952,-0.396732 0.28241,-0.51753 0.32174,-0.08414 5.05698,-0.121299 10.52277,-0.08258 9.40859,0.06664 10.03939,0.101682 11.84585,0.657997 2.47988,0.76371 3.78048,1.915997 3.78048,3.349397 0,1.19503 -0.79121,2.57146 -1.7219,2.99551 -2.01115,0.91634 -4.15413,0.55893 -7.87949,-1.31414 -1.94608,-0.97847 -6.02584,-2.60743 -6.53036,-2.60743 -0.12136,0 -0.34982,0.37052 -0.50768,0.82338 -0.22428,0.64335 -0.38902,0.78018 -0.75349,0.62582 -2.39834,-1.01576 -4.45082,-1.15222 -6.26874,-0.41679 l -0.77519,0.3136 1.76738,1.78103 c 0.97206,0.97957 1.76738,1.86734 1.76738,1.97283 0,0.10549 -0.2024,0.1918 -0.44979,0.1918 -0.82336,0 -2.5e-4,0.48421 2.86052,1.68277 4.30769,1.80476 8.17512,2.37804 11.03803,1.63618 0.90837,-0.23538 1.76635,-0.35704 1.90662,-0.27034 0.14027,0.0867 0.25504,0.0504 0.25504,-0.0807 0,-0.13108 0.44649,-0.3769 0.99219,-0.54628 2.70815,-0.84056 4.79253,-2.7409 4.83271,-4.40601 0.007,-0.29104 0.19077,-0.76466 0.40834,-1.05249 1.05412,-1.39453 1.94808,1.53398 1.02379,3.35379 -1.61854,3.1867 -3.45425,4.2222 -8.91333,5.02788 -3.07586,0.45396 -4.03303,0.69607 -4.61766,1.16801 -0.6121,0.49412 -0.68699,0.6771 -0.44044,1.07616 0.23244,0.37623 0.6353,0.48105 1.85208,0.48188 2.78124,0.002 2.92191,0.58504 0.43055,1.78475 -1.18863,0.57239 -1.98504,1.1607 -2.38125,1.75904 -0.76789,1.15965 -0.75735,1.2098 0.26458,1.25926 0.47295,0.0229 1.69976,0.12652 2.72626,0.23028 2.27413,0.22988 3.24323,-0.18257 5.99632,-2.55208 2.38342,-2.05134 3.38211,-2.03344 3.38211,0.0606 0,1.23201 1.1793,2.35402 2.4677,2.3478 1.11054,-0.005 1.50555,-0.2886 1.4931,-1.07062 -0.0159,-0.99865 0.26119,-6.74616 0.44262,-9.18138 0.13938,-1.87077 0.0765,-2.4244 -0.43581,-3.83646 -0.32929,-0.90761 -0.93999,-2.0413 -1.35712,-2.5193 -0.88845,-1.01814 -0.95952,-1.54495 -0.23923,-1.77356 0.74653,-0.23694 1.33789,0.16156 3.11053,2.09608 1.47376,1.60834 2.29872,2.98789 3.88681,6.4997 0.83351,1.84316 2.12234,4.10127 3.01186,5.27696 1.95437,2.58308 4.79032,4.46177 5.14211,3.4064 0.072,-0.21602 0.49806,-0.12179 1.3803,0.30529 0.88937,0.43054 1.67832,0.60355 2.60306,0.57081 1.26483,-0.0448 3.10032,-0.68027 3.10032,-1.07343 0,-0.4015 -1.52179,-1.5738 -2.7151,-2.09155 -1.58173,-0.68629 -1.84779,-1.26611 -0.89834,-1.95774 0.38816,-0.28276 0.64333,-0.61511 0.56704,-0.73855 -0.0763,-0.12344 -0.79827,-0.52639 -1.60438,-0.89545 -1.1145,-0.51023 -2.36161,-1.56462 -5.20499,-4.40063 -2.47614,-2.46971 -4.32552,-4.07171 -5.47459,-4.74229 -2.5638,-1.4962 -6.42357,-3.4494 -6.81643,-3.4494 -0.18853,0 -0.34279,-0.11906 -0.34279,-0.264582 0,-0.145521 -0.0298,-0.34245 -0.0661,-0.437618 -0.23652,-0.618749 5.56288,0.171365 9.9885,1.36084 12.00978,3.22787 20.40212,7.98063 24.0656,13.62886 0.6135,0.94589 1.20727,1.95792 1.31947,2.24896 0.46092,1.19558 0.92223,3.51755 0.93107,4.68643 0.0117,1.54929 -0.83899,3.88766 -1.71307,4.70882 -0.68908,0.64736 -0.88901,1.58496 -0.33796,1.58496 0.17643,0 0.58248,-0.32742 0.90232,-0.72761 0.90665,-1.13437 1.0397,-0.50257 0.22061,1.04759 -0.60162,1.13858 -0.75839,1.8195 -0.8401,3.64877 -0.13074,2.92728 -0.20796,3.24321 -1.0321,4.22263 -0.65949,0.78376 -0.67707,0.88145 -0.36153,2.00845 0.36272,1.29552 1.77167,2.76475 2.6513,2.76475 0.28597,0 0.51996,-0.0637 0.51996,-0.1416 z m -48.55105,-22.06486 c 1.38082,-0.23461 2.00428,-0.58807 4.23334,-2.40003 1.01864,-0.82804 2.95567,-2.25285 4.3045,-3.16625 3.17548,-2.15036 4.12164,-3.464 4.53715,-6.2993 l 0.22195,-1.51442 0.0323,1.3468 c 0.0244,1.01761 -0.16586,1.74329 -0.77829,2.96888 -0.90614,1.81332 -2.21381,3.08362 -5.40716,5.2526 -1.16416,0.79072 -2.59291,1.79519 -3.175,2.23216 -1.55137,1.16459 -3.05038,1.81765 -4.10104,1.78667 l -0.92604,-0.0273 z m 31.99013,-0.26826 c -1.09136,-0.26085 -3.8656,-1.99329 -5.39754,-3.37064 -0.68017,-0.61152 -2.44008,-2.69738 -3.91092,-4.63524 -2.37115,-3.12402 -5.54931,-6.60136 -7.07125,-7.73692 -0.29104,-0.21715 -0.38339,-0.3986 -0.20523,-0.40323 0.72225,-0.0188 4.07316,3.29552 6.68752,6.61444 1.52797,1.93974 3.31391,4.11552 3.96875,4.83505 1.91064,2.0994 4.61693,3.84274 7.40834,4.77232 0.62673,0.20871 -0.5392,0.149 -1.47967,-0.0758 z m 14.44425,-11.78056 c -4.41128,-4.99933 -10.75091,-7.614312 -21.43125,-8.840007 l -1.98438,-0.22773 1.5875,-0.03607 c 3.84526,-0.08738 11.31247,1.54192 14.68438,3.204047 2.93242,1.44548 7.07872,4.78221 8.39972,6.75965 0.7909,1.18392 0.17591,0.76287 -1.25597,-0.85989 z m -46.43438,1.021 c -2.45072,-0.43818 -5.84392,-1.48686 -7.39202,-2.28453 -0.59105,-0.30455 -1.84855,-0.83227 -2.79444,-1.17273 -1.64531,-0.5922 -1.66823,-0.61211 -0.52916,-0.45976 0.65484,0.0876 2.26219,0.60832 3.57187,1.1572 6.0752,2.54606 9.59337,3.20608 13.34303,2.50319 1.08127,-0.20269 2.01805,-0.31641 2.08174,-0.25272 0.0637,0.0637 -0.16614,0.17562 -0.51073,0.24875 -3.78883,0.80405 -4.58207,0.83065 -7.77029,0.2606 z M 175.17124,94.643818 c 0.21828,-0.141064 0.51594,-0.25648 0.66146,-0.25648 0.14552,0 0.086,0.115416 -0.1323,0.25648 -0.21828,0.141065 -0.51593,0.256481 -0.66145,0.256481 -0.14552,0 -0.086,-0.115416 0.13229,-0.256481 z m 26.02803,-1.164813 c 0.50091,-0.656221 1.05439,-1.628384 1.22995,-2.160362 0.41118,-1.245882 0.21118,-5.442119 -0.32701,-6.861283 -0.84175,-2.219591 -0.83329,-2.173894 -0.27635,-1.493057 0.83683,1.022979 1.47765,4.008682 1.33556,6.222677 -0.10004,1.558807 -0.29162,2.229652 -0.98069,3.434024 -0.471,0.823223 -1.08943,1.621501 -1.37428,1.773949 -0.36343,0.194505 -0.24627,-0.0787 0.39282,-0.915948 z m -23.24244,0.0094 c 2.27008,-1.09627 3.96218,-2.570023 5.53647,-4.82206 0.66161,-0.946452 1.20294,-1.793177 1.20294,-1.88161 0,-0.277737 1.37038,-1.971254 1.49461,-1.847031 0.19806,0.198063 -2.79306,5.03004 -3.55734,5.746666 -1.66528,1.561446 -5.23545,3.694838 -6.1832,3.694838 -0.18595,0 0.49198,-0.400861 1.50652,-0.890803 z m 31.10312,0.791797 c 0.0606,-0.05445 1.24134,-0.546701 2.62379,-1.093884 1.38245,-0.547184 3.80528,-1.640645 5.38406,-2.429913 2.69767,-1.348617 3.81137,-2.020411 9.44471,-5.697124 1.24358,-0.811649 2.73186,-1.661871 3.30729,-1.88938 0.57543,-0.227509 0.8254,-0.269033 0.55551,-0.09228 -9.89251,6.478591 -10.84951,7.040376 -15.50419,9.10142 -3.27675,1.450911 -6.30722,2.546645 -5.81117,2.101159 z M 7.2369312,139.86503 c 1.017051,-0.4634 1.491987,-1.60344 1.770826,-4.25067 0.328327,-3.11706 0.330948,-3.66429 0.01756,-3.66429 -0.138693,0 -0.451936,0.42098 -0.696095,0.9355 -0.504946,1.0641 -0.790423,1.0841 -0.388603,0.0272 0.337034,-0.88646 0.104193,-0.88361 -0.828707,0.0102 -1.092753,1.04693 -1.148923,0.60824 -0.08176,-0.6385 0.508428,-0.59398 0.924415,-1.15034 0.924415,-1.23635 0,-0.36291 -0.649717,-0.10719 -1.451375,0.57123 -0.472875,0.40018 -1.577267,1.16106 -2.454203,1.69084 -1.121436,0.67748 -1.806931,1.32584 -2.310758,2.18555 l -0.716328,1.22232 0.622061,1.23592 c 0.403504,0.80169 0.94597,1.40496 1.543975,1.71705 1.027879,0.53643 3.081483,0.63483 4.048992,0.194 z M 228.24666,138.98799 c 1.2383,-1.23831 1.16955,-1.64568 -0.31529,-1.86835 -0.66819,-0.1002 -1.25004,-0.14349 -1.29301,-0.0962 -0.043,0.0473 -0.16229,0.71107 -0.26516,1.47506 -0.17644,1.31042 -0.15417,1.38906 0.39342,1.38906 0.31925,0 0.98526,-0.40481 1.48004,-0.89958 z m -12.31574,-0.15875 c 0.10973,-0.21828 0.5824,-1.2142 1.05038,-2.21315 0.46799,-0.99895 1.25342,-2.52844 1.74541,-3.39886 1.0128,-1.79183 1.01459,-1.79751 0.5638,-1.79305 -0.1819,0.002 -0.60714,0.42984 -0.94497,0.95121 -0.79156,1.22157 -1.08818,0.96317 -0.3204,-0.27911 0.6127,-0.99138 0.48098,-1.18036 -0.3727,-0.53467 -0.28247,0.21365 -0.63966,0.38467 -0.79375,0.38005 -0.15409,-0.005 -0.049,-0.18323 0.23343,-0.39688 0.28248,-0.21365 0.46107,-0.39813 0.39688,-0.40995 -0.63525,-0.117 -2.08395,-0.20474 -3.92965,-0.23801 -2.0638,-0.0372 -2.27482,0.009 -2.90532,0.63978 -0.58345,0.58344 -0.69404,0.96 -0.77961,2.65455 -0.12289,2.43365 0.17208,2.91273 2.60307,4.22767 1.799,0.97309 3.09326,1.1269 3.45343,0.41042 z M 0.67852523,136.89041 c 0,-0.85136 0.193487,-1.39875 0.75432397,-2.13404 0.414878,-0.54394 0.712534,-1.01921 0.661458,-1.05617 -0.05108,-0.037 -0.607556,-0.21512 -1.23662297,-0.3959 -0.882542,-0.25362 -1.229995,-0.25712 -1.521354,-0.0153 -0.50301903,0.41747 -0.47644103,0.9083 0.134964,2.49243 0.281908,0.73042 0.575828,1.53639 0.653154,1.79105 0.256677,0.84532 0.554077,0.47923 0.554077,-0.68205 z M 229.14624,136.74564 c 0,-0.12733 0.35297,-0.3021 0.78438,-0.38838 0.90793,-0.18159 2.19882,-1.90742 2.1496,-2.87388 -0.017,-0.334 -0.021,-1.56992 -0.009,-2.7465 0.0221,-2.13597 0.0206,-2.14051 -0.93157,-2.97656 -0.79852,-0.70113 -1.16873,-0.83733 -2.27586,-0.83733 -1.50187,0 -2.73727,0.44645 -4.08956,1.47789 -0.63907,0.48744 -0.88653,0.85602 -0.78644,1.17137 0.10093,0.31799 -0.0402,0.52152 -0.45669,0.65882 l -0.60273,0.19868 0.6382,0.12272 c 0.47334,0.091 0.54534,0.18013 0.27872,0.34491 -0.28217,0.17438 -0.22025,0.337 0.28784,0.75601 0.64188,0.52935 0.64228,0.53258 0.0479,0.38333 -0.32969,-0.0828 -0.66414,-0.25522 -0.74322,-0.38317 -0.0791,-0.12796 -0.32644,-0.23265 -0.54968,-0.23265 -0.26992,0 -0.0209,0.46284 0.74322,1.38158 1.93235,2.32326 3.11362,3.39018 3.93551,3.55456 0.43201,0.0864 0.78548,0.26127 0.78548,0.3886 0,0.12733 0.17859,0.23151 0.39687,0.23151 0.21829,0 0.39688,-0.10418 0.39688,-0.23151 z m -209.139629,-1.2152 c 0.592994,-1.41924 0.45086,-3.0512 -0.265743,-3.0512 -0.385146,0 -1.996717,0.77438 -1.996717,0.95946 0,0.0698 0.297656,0.56498 0.661458,1.10037 0.363802,0.53538 0.661458,1.18391 0.661458,1.44117 0,0.77973 0.532289,0.5249 0.939544,-0.4498 z m 189.317629,-2.27828 c 0.19333,-1.80025 0.37331,-2.19923 1.18897,-2.63576 0.79139,-0.42354 0.78782,-0.43345 -0.60583,-1.68119 l -1.11491,-0.99817 -0.5514,0.88204 c -0.46889,0.75005 -0.52701,1.13937 -0.38839,2.60182 0.19032,2.00783 0.64879,3.48559 1.04134,3.35648 0.1519,-0.05 0.3455,-0.73632 0.43022,-1.52522 z M 5.3748792,131.70911 c 0.836745,-0.52149 1.521355,-1.02615 1.521355,-1.12147 0,-0.0953 -0.357188,-0.29782 -0.79375,-0.45001 -1.071603,-0.37356 -0.998583,-0.47004 0.264583,-0.34957 1.168494,0.11143 1.286074,-0.0529 0.595312,-0.83222 -0.448415,-0.50588 -0.444791,-0.51279 0.114898,-0.21927 0.956437,0.50159 1.144689,0.37053 0.764967,-0.53256 -0.933459,-2.22005 -3.137928,-3.82832 -4.919884,-3.58931 -1.362473,0.18275 -3.12362097,1.42083 -3.58214897,2.51824 -0.209812,0.50215 -0.38147803,1.54417 -0.38147803,2.3156 0,1.12209 0.13667103,1.56502 0.68339603,2.21477 1.310774,1.55776 3.28150997,1.57351 5.73274997,0.0458 z m 13.6860708,0.37711 c 0.572934,-0.36167 1.165881,-0.88963 1.317657,-1.17323 0.457369,-0.8546 0.326967,-2.97706 -0.240038,-3.90697 -0.70167,-1.15076 -1.442707,-1.48845 -2.948744,-1.34374 -1.134894,0.10905 -1.498907,0.32764 -3.401005,2.04236 -1.171548,1.05613 -2.130086,2.02669 -2.130086,2.1568 0,0.1301 0.446484,0.24921 0.992187,0.26469 0.990783,0.0281 0.991159,0.0286 0.264584,0.31566 -0.400183,0.15814 -0.727605,0.38967 -0.727605,0.51452 0,0.32419 1.707928,0.99392 3.566833,1.39868 2.16568,0.47156 2.128707,0.47456 3.306217,-0.26877 z m 199.48898,-1.84031 c 0.26275,-0.3166 0.15609,-0.41132 -0.62906,-0.55861 -0.52001,-0.0975 -0.94546,-0.27487 -0.94546,-0.39404 0,-0.11917 0.38616,-0.10592 0.85815,0.0294 1.71757,0.49259 1.96623,0.26453 0.59705,-0.54764 -1.2096,-0.71751 -1.30691,-1.1578 -0.11489,-0.51986 0.63682,0.34082 0.63779,0.23994 0.008,-0.85408 -0.27694,-0.48126 -0.58744,-1.29174 -0.69,-1.80106 -0.30741,-1.52665 -1.16875,-2.6672 -2.4384,-3.22882 -1.13606,-0.50253 -1.20013,-0.50348 -2.49796,-0.0368 -1.74347,0.62694 -3.39512,2.58986 -3.39512,4.03495 0,1.63297 2.06061,3.32133 4.89479,4.01055 1.46261,0.35568 4.01136,0.27718 4.35265,-0.13405 z m -209.6187528,-2.06615 -0.149897,-1.38907 0.419701,1.00114 c 0.479602,1.14402 0.9267108,1.15754 1.1696778,0.0354 0.159427,-0.73633 0.168576,-0.7269 0.198437,0.20465 0.01722,0.53711 0.143425,1.04587 0.280462,1.13056 0.281943,0.17425 4.109099,-3.07159 4.5142,-3.82853 0.761135,-1.42219 -0.239752,-4.05897 -1.858476,-4.89605 -0.628092,-0.3248 -1.233932,-0.37569 -2.791842,-0.23452 -1.6678028,0.15114 -2.1160978,0.2984 -2.7711498,0.91031 -0.666109,0.62224 -0.781473,0.92732 -0.781473,2.06661 0,0.73513 0.111677,1.6101 0.248171,1.94437 0.136494,0.33427 0.503592,1.47096 0.815773,2.52599 0.31218,1.05502 0.632561,1.91823 0.711957,1.91823 0.07939,0 0.0769,-0.62508 -0.0055,-1.38906 z m 215.0980728,0.10452 c 0.70429,-0.56097 1.48435,-1.24994 1.73346,-1.53104 1.70995,-1.92949 1.3541,-4.64482 -0.77682,-5.92753 -2.07835,-1.25108 -4.80607,-0.51948 -5.7338,1.53786 -0.38334,0.8501 -0.41449,1.31174 -0.20118,2.98108 0.13881,1.08637 0.39639,2.3324 0.5724,2.76896 0.34569,0.85746 0.30503,0.89143 0.95001,-0.79375 0.16477,-0.4305 0.23588,-0.33184 0.38143,0.52917 0.0984,0.58208 0.19579,0.87273 0.21644,0.64588 0.0207,-0.22685 0.22175,-0.64357 0.44689,-0.92604 0.38493,-0.48297 0.39995,-0.45837 0.25188,0.41245 -0.17423,1.02465 -0.21866,1.05453 1.26479,-0.85058 0.2953,-0.37924 0.21966,-0.0868 -0.2029,0.78443 -0.37053,0.76399 -0.56332,1.38907 -0.42841,1.38907 0.1349,0 0.82152,-0.45898 1.52581,-1.01996 z m 5.58708,-2.26338 c 0.63633,-0.60578 -1.28652,-4.125 -2.25383,-4.125 -0.26993,0 -0.3107,0.15935 -0.15232,0.59532 0.41113,1.13169 0.24852,3.01737 -0.31419,3.64365 l -0.52788,0.58752 1.45521,-0.18995 c 0.80037,-0.10447 1.60722,-0.33466 1.79301,-0.51154 z m -11.1518,-1.80989 c -0.007,-1.05503 0.0855,-2.18612 0.20588,-2.51354 0.191,-0.51968 0.13242,-0.59532 -0.46107,-0.59532 -0.77417,0 -2.02768,0.50952 -2.02768,0.8242 0,0.11554 0.28708,0.49717 0.63796,0.84804 0.35087,0.35088 0.85507,1.24926 1.12043,1.99641 0.26536,0.74714 0.49483,1.35844 0.50994,1.35844 0.0151,0 0.0216,-0.86321 0.0145,-1.91823 z M 1.3399832,123.50023 c 0,-0.88805 -0.121756,-1.09473 -0.92364297,-1.56785 -0.508004,-0.29973 -1.149708,-0.9167 -1.42600803,-1.37104 -0.640278,-1.05285 -0.941238,-0.62508 -0.698597,0.99297 0.356041,2.37425 1.48856803,3.78036 2.58522803,3.20973 0.31958197,-0.16629 0.46301997,-0.5578 0.46301997,-1.26381 z m 5.132565,0.0682 c 0.03032,-0.70163 0.150414,-1.48305 0.266863,-1.73649 0.357609,-0.77828 -0.543562,-0.85037 -2.492757,-0.19941 -1.440989,0.48123 -1.842726,0.73412 -1.969657,1.23985 -0.22722,0.90532 -0.008,1.10876 1.176924,1.09241 0.621682,-0.009 1.393726,0.2064 1.905961,0.53072 0.473549,0.29983 0.905217,0.50093 0.959263,0.44688 0.05405,-0.054 0.123078,-0.67233 0.153403,-1.37396 z m 12.1928418,1.24561 c 0.23255,-0.37627 -0.533979,-1.72004 -1.238446,-2.17107 -1.342347,-0.85942 -1.474883,-0.80713 -1.346771,0.53137 0.06501,0.67928 0.164613,1.38389 0.221332,1.56579 0.121922,0.39102 2.129112,0.45378 2.363885,0.0739 z m 192.21748,-2.54133 c 0.0197,-0.78694 -3.0558,-2.49352 -4.49364,-2.49352 -0.72038,0 -0.66428,0.18266 0.30713,1.00005 0.4584,0.38572 1.24878,1.35057 1.75641,2.14412 l 0.92295,1.44281 0.75002,-0.90443 c 0.41251,-0.49743 0.75322,-1.0325 0.75713,-1.18903 z m 18.2209,-1.31534 c 0.16888,-0.37065 0.30705,-1.09075 0.30705,-1.60021 v -0.92631 l -1.19062,0.81917 c -1.31006,0.90135 -1.51623,1.61419 -0.59532,2.05833 0.90774,0.43778 1.14518,0.38143 1.47889,-0.35098 z M 7.3903332,120.33567 c 0.293489,-0.18592 0.250709,-0.37947 -0.226555,-1.02501 -0.822785,-1.11288 -1.036497,-3.84093 -0.405124,-5.17145 0.25143,-0.52985 1.605633,-2.13025 3.009342,-3.55645 4.6951198,-4.77034 5.1070288,-7.39433 0.4698728,-2.99324 -3.4081018,3.2346 -5.3817488,7.01044 -5.6455498,10.80065 l -0.151925,2.18282 1.294066,-0.004 c 0.711736,-0.002 1.456879,-0.1072 1.655873,-0.23327 z M 141.58728,119.88751 c 0.79039,-0.2315 1.54249,-0.52145 1.67131,-0.64434 0.30314,-0.28917 -1.27554,-2.2913 -1.98399,-2.51615 -0.32717,-0.10384 -0.47822,-0.31652 -0.38604,-0.54356 0.0833,-0.20514 0.21237,-0.52205 0.28685,-0.70425 0.0745,-0.1822 -0.10427,-0.48096 -0.39723,-0.66392 -0.4636,-0.28952 -0.72128,-0.20741 -1.98751,0.63332 -0.80017,0.53128 -1.45485,1.06211 -1.45485,1.17962 0,0.41612 1.73634,1.51938 2.91042,1.84926 0.7792,0.21893 1.02067,0.37312 0.6988,0.44621 -0.75355,0.17111 -2.63968,-0.65182 -3.4626,-1.51076 -0.65299,-0.68158 -0.8167,-0.73587 -1.43407,-0.47564 -0.38331,0.16157 -0.87204,0.45116 -1.08607,0.64353 -0.65186,0.58589 0.62918,1.58817 2.77702,2.17272 2.33802,0.63631 2.15457,0.62992 3.84796,0.13396 z m -36.22557,-0.8863 c 1.29447,-1.59861 0.16389,-2.0246 -4.34411,-1.6368 -2.93294,0.2523 -3.51637,0.23502 -4.43177,-0.13125 -0.5798,-0.23199 -1.05418,-0.5128 -1.05418,-0.62402 0,-0.11122 0.22521,-0.72337 0.50046,-1.36033 1.21855,-2.81982 0.93175,-5.26427 -1.14188,-9.73251 -0.64784,-1.39596 -1.29753,-3.25248 -1.44376,-4.12561 -0.30781,-1.837845 -0.36733,-4.830013 -0.10455,-5.255209 0.0992,-0.160454 0.20035,-0.472421 0.22484,-0.693261 0.0245,-0.22084 0.13216,-0.609886 0.23927,-0.864547 0.13643,-0.324393 0.0732,-0.463021 -0.21118,-0.463021 -0.75618,0 -2.02954,1.944521 -2.77218,4.233333 -0.68129,2.099755 -0.77494,2.244305 -1.41151,2.178825 -0.67612,-0.0695 -0.68102,-0.0564 -0.58806,1.58504 0.0516,0.91034 0.2819,2.22164 0.51186,2.914 0.50883,1.53195 2.33845,4.07326 3.74817,5.20613 1.41557,1.13759 2.30657,2.73832 1.92307,3.45489 -0.39136,0.73128 -0.61345,0.67814 -1.3532,-0.32376 -1.63234,-2.21083 -3.04941,-2.93139 -5.66197,-2.87905 -2.31572,0.0464 -3.98594,0.54217 -5.696892,1.69104 -2.119879,1.42346 -3.123806,2.6904 -2.686616,3.39045 0.172542,0.27629 0.313713,0.67841 0.313713,0.8936 0,0.5877 1.572742,2.26175 2.124872,2.26175 0.265406,0 0.703657,-0.26789 0.973893,-0.59531 0.27024,-0.32742 0.84417,-0.77833 1.2754,-1.00201 0.43329,-0.22475 1.19906,-1.09274 1.71169,-1.94018 1.27463,-2.10711 2.10236,-2.66257 3.94882,-2.6499 2.39592,0.0165 4.66492,1.89522 4.09199,3.38825 -0.0882,0.22985 -0.30461,0.4179 -0.48091,0.4179 -0.94153,0 -3.13833,-0.90981 -4.25435,-1.76195 l -1.27251,-0.97164 -0.77065,0.8625 c -0.74207,0.83052 -0.75332,0.88166 -0.30331,1.37891 0.62606,0.69179 4.32329,2.42763 6.59778,3.09764 2.36207,0.69581 3.18459,0.77242 7.63057,0.71069 3.47937,-0.0483 3.70494,-0.0837 4.16719,-0.65459 z m -23.475221,-2.52927 c 0.465624,-1.96996 2.342471,-4.10656 4.252451,-4.84098 1.19184,-0.45829 3.07483,-0.62204 3.96875,-0.34515 0.64731,0.2005 0.40323,0.25154 -1.32291,0.27667 -1.98316,0.0289 -2.20809,0.0929 -3.56608,1.01493 -1.13642,0.77161 -1.64113,1.35549 -2.337285,2.70391 -1.044474,2.0231 -1.249754,2.26875 -0.994926,1.19062 z m 13.645161,-4.60316 c 0,-0.13065 -0.4707,-1.01234 -1.04601,-1.95932 -1.31419,-2.16319 -2.29548,-4.56133 -2.64902,-6.47384 -0.38686,-2.09268 -0.32159,-5.070709 0.13179,-6.013676 l 0.38163,-0.79375 -0.19513,0.926041 c -0.31481,1.494015 -0.16254,4.759455 0.30845,6.614585 0.45018,1.77317 2.03367,5.38071 2.67084,6.08478 0.51947,0.57401 0.97188,1.85272 0.65549,1.85272 -0.14192,0 -0.25804,-0.10689 -0.25804,-0.23754 z m 79.23896,7.1984 c 0.58002,-0.20176 1.35393,-0.64829 1.7198,-0.99229 0.36586,-0.34399 0.89997,-0.66778 1.1869,-0.71951 1.71893,-0.30991 2.04713,-7.51542 0.35714,-7.84088 -0.35511,-0.0684 -0.47256,0.21186 -0.60849,1.45198 -0.2754,2.5126 -2.00138,6.43151 -2.83258,6.43151 -0.13272,0 0.12641,-0.53448 0.57586,-1.18772 1.09186,-1.58697 1.57316,-3.03706 1.76627,-5.32153 0.15053,-1.78085 0.12516,-1.90991 -0.40886,-2.0794 -0.31314,-0.0994 -0.51951,-0.26143 -0.4586,-0.36009 0.0609,-0.0987 -0.16186,-0.19571 -0.49504,-0.21566 -0.54688,-0.0327 -0.61717,0.10109 -0.72293,1.37639 -0.086,1.03706 -0.38229,1.84222 -1.11434,3.02824 -0.91959,1.48985 -0.97166,1.67721 -0.66909,2.40769 0.26381,0.63688 0.25964,1.00979 -0.0213,1.90283 -0.19217,0.61089 -0.52128,1.31463 -0.73136,1.56387 -0.21007,0.24924 -0.31059,0.63912 -0.22337,0.8664 0.17046,0.44423 0.67527,0.38549 2.67998,-0.31183 z m -47.35667,-0.18778 c 1.95979,-0.14461 5.56081,-1.20906 8.20209,-2.42451 5.95266,-2.73924 9.06607,-7.28466 9.77462,-14.27045 0.22066,-2.17552 -0.0816,-3.15116 -1.01005,-3.260198 l -0.72548,-0.0852 0.17383,2.201868 c 0.21221,2.68819 -0.26024,4.9696 -1.56514,7.55791 -1.97689,3.92124 -5.50354,6.38627 -11.67486,8.16042 -2.31847,0.66651 -3.07142,0.75957 -6.08542,0.75212 -2.9466,-0.007 -3.62149,-0.0905 -4.70875,-0.58071 -0.69804,-0.31471 -2.00773,-0.70376 -2.91042,-0.86455 -2.64681,-0.47145 -4.2025,-1.10099 -4.06095,-1.64334 0.0719,-0.27532 -0.21646,-0.81476 -0.71427,-1.3364 -0.45913,-0.4811 -1.2515,-1.42969 -1.76082,-2.10799 -0.90807,-1.20933 -1.55663,-1.57894 -1.61885,-0.92257 -0.0529,0.55851 0.0741,1.11781 0.28546,1.25677 0.11067,0.0728 0.3994,0.51908 0.64162,0.99181 0.97939,1.91151 4.90809,4.5362 8.79639,5.87671 1.56881,0.54086 5.09171,1.03248 6.44746,0.89974 0.36381,-0.0356 1.4949,-0.12626 2.51354,-0.20143 z m -0.3237,-2.12495 c 1.27717,-0.20731 2.91443,-0.57367 3.63834,-0.81411 1.47243,-0.48907 1.37854,-0.2815 1.82766,-4.04021 0.16134,-1.35033 0.6542,-3.9697 1.09523,-5.82083 0.99162,-4.16208 1.29133,-6.801352 0.75194,-6.621554 -0.22124,0.07375 -0.69178,1.390194 -1.17131,3.277064 -1.13029,4.44744 -2.95356,8.13376 -5.26683,10.6486 -1.33686,1.45333 -2.23251,1.91223 -3.6529,1.87158 -1.31799,-0.0377 -3.91183,0.58678 -3.98911,0.96042 -0.0807,0.39008 1.63714,0.88642 3.12193,0.90205 0.72761,0.008 2.36788,-0.15569 3.64505,-0.36301 z M 93.53252,115.3052 c 0.30267,-0.48973 -0.19354,-1.05713 -1.54182,-1.76305 -1.01839,-0.5332 -1.57794,-0.6764 -2.11562,-0.54145 -1.00156,0.25137 -0.77565,0.67419 0.90045,1.68531 1.40803,0.8494 2.46763,1.08738 2.75699,0.61919 z m 0.93924,-2.67263 c -0.12608,-0.23557 -1.1884,-1.38748 -2.36071,-2.5598 -2.78777,-2.78776 -3.77256,-4.77353 -3.93889,-7.94246 -0.12102,-2.305767 -0.0871,-2.37027 1.16999,-2.223289 0.16103,0.01884 0.53033,-0.690263 0.82065,-1.575763 l 0.52787,-1.609997 -0.68836,-0.412893 c -0.3786,-0.227095 -1.21469,-0.765911 -1.85797,-1.19737 l -1.16961,-0.784475 -0.47815,0.621668 c -0.26299,0.341917 -0.48081,0.731357 -0.48404,0.865419 -0.003,0.134062 -0.16909,0.431718 -0.36855,0.661459 -0.19947,0.22974 -0.64069,1.251145 -0.98048,2.269791 -0.8091,2.42551 -0.89552,6.97672 -0.17019,8.96256 0.83328,2.28139 0.87113,2.3058 3.66545,2.36342 2.22469,0.0459 2.58813,0.12583 3.55417,0.78184 0.59184,0.4019 1.42502,1.19463 1.85151,1.76161 0.47219,0.62774 0.84603,0.91663 0.95598,0.73873 0.0993,-0.16068 0.0774,-0.48489 -0.0487,-0.72045 z m 20.66154,-0.63685 c 0.73063,-0.61479 2.05286,-1.09508 5.08423,-1.84683 1.58,-0.39183 2.83079,-1.04345 2.83079,-1.47475 0,-0.13474 -0.38695,-0.0903 -0.8599,0.0988 -1.00496,0.40182 -2.96027,0.25931 -3.37992,-0.24635 -0.21532,-0.25944 -0.18545,-0.55581 0.11443,-1.13572 0.75821,-1.46623 2.11713,-2.49924 5.1748,-3.93377 2.80626,-1.31657 5.30059,-3.13703 5.30059,-3.868595 0,-0.171194 -4.82795,-0.114313 -5.2045,0.06131 -0.0248,0.01159 -0.12248,0.373245 -0.21702,0.803705 -0.17988,0.81899 -1.7401,2.39234 -2.37237,2.39234 -0.20194,0 -0.49846,0.39787 -0.65895,0.88415 -0.29163,0.88365 -1.06706,1.72172 -2.10896,2.27933 -0.30407,0.16273 -1.28177,0.94628 -2.17266,1.7412 -1.44434,1.28876 -1.74658,1.44532 -2.79018,1.44532 -0.93503,0 -2.40817,0.46703 -2.94956,0.93511 -0.17398,0.15042 0.71998,1.61143 1.4054,2.29686 0.59688,0.59687 0.81319,0.6672 1.38428,0.45008 0.37227,-0.14154 1.01105,-0.53854 1.4195,-0.88223 z m 25.82292,-2.3368 c 1.05832,-1.66065 1.92775,-3.95771 2.15174,-5.68495 0.21627,-1.66772 -0.0685,-4.203526 -0.53518,-4.765856 -0.32322,-0.389461 -3.30369,-0.411787 -3.5418,-0.02653 -0.19376,0.313518 -0.14967,10.655326 0.0476,11.169466 0.30054,0.7832 1.13294,0.47637 1.87761,-0.69213 z m -37.20776,-1.85601 c 0.28674,-0.49101 0.23209,-0.5347 -1.01221,-0.80906 -0.4627,-0.10202 -0.69052,0.0414 -0.99219,0.6248 -0.41161,0.79597 -0.52305,2.15134 -0.20318,2.4712 0.18291,0.18291 1.65711,-1.34429 2.20758,-2.28694 z m 7.92278,1.1194 c 0,-0.11744 -0.35719,-0.29198 -0.79375,-0.38787 -0.43657,-0.0959 -0.79375,-0.2802 -0.79375,-0.40959 0,-0.12939 -0.15658,-0.17517 -0.34796,-0.10173 -0.42631,0.16359 -1.76871,-1.03338 -1.76871,-1.57709 0,-0.21665 -0.10805,-0.46067 -0.2401,-0.54229 -0.26812,-0.1657 -2.40573,1.1496 -2.40573,1.48028 0,0.35884 1.64358,1.12815 3.30729,1.54806 1.58348,0.39965 3.04271,0.39497 3.04271,-0.01 z m 4.80881,-1.7564 c 1.36551,-1.34498 1.76912,-2.44557 1.35378,-3.69159 -0.13253,-0.3976 -0.4655,-0.85047 -0.73994,-1.00639 -0.83714,-0.47561 -1.01404,-0.60938 -2.27724,-1.72214 -0.67112,-0.59119 -1.2962,-1.074888 -1.38906,-1.074888 -0.0929,0 -0.17247,0.267891 -0.1769,0.595308 -0.007,0.53166 -0.0369,0.54581 -0.27773,0.1323 -0.42993,-0.738146 -0.84487,-0.546511 -0.71612,0.33073 0.16484,1.12316 -0.22521,0.99053 -0.43904,-0.14928 -0.21543,-1.148345 -0.77407,-1.08032 -0.89131,0.10853 -0.0941,0.95439 -0.57817,0.87774 -0.57817,-0.0915 0,-0.920698 -0.42483,-1.032215 -0.74313,-0.19508 -1.10344,2.90202 -1.41367,4.74623 -0.975,5.79611 0.40603,0.97178 0.98332,1.33258 3.17334,1.9833 2.27395,0.67566 3.15359,0.48467 4.67652,-1.01537 z m -10.11453,-1.35923 c 0.64947,-0.48491 1.60343,-2.04995 1.9861,-3.25839 0.10945,-0.34564 0.24416,-0.74749 0.29936,-0.89301 0.30228,-0.79698 0.40433,-1.719795 0.19019,-1.719795 -0.13526,0 -0.58814,0.357185 -1.00639,0.793755 -0.41826,0.43656 -0.88061,0.79375 -1.02745,0.79375 -0.14684,0 0.14195,-0.42192 0.64176,-0.93759 1.01981,-1.052171 0.8277,-1.444702 -0.64168,-1.311087 -0.45359,0.04125 -1.63521,-0.03178 -2.62581,-0.16228 -2.46012,-0.324088 -3.57451,0.316061 -4.14871,2.383157 -0.68083,2.451 -0.0683,3.88987 1.98105,4.65345 1.32239,0.49271 3.45845,0.32486 4.35158,-0.34196 z m 13.15767,-0.91026 c 0.81902,-0.90988 0.93289,-1.47405 0.35944,-1.78095 -0.86877,-0.46495 -1.28813,-0.0725 -1.28813,1.20549 0,1.32415 0.16355,1.4255 0.92869,0.57546 z m 73.54034,0.20447 c 1.06981,-0.21453 1.93415,-1.14954 2.11971,-2.29303 0.20682,-1.27448 -0.96429,-2.38882 -3.16524,-3.011826 -1.96375,-0.55586 -2.9053,-0.611854 -12.70329,-0.75547 l -7.63048,-0.111842 1.28048,0.891074 c 1.55652,1.083164 1.89349,1.245174 3.97778,1.912454 l 1.63895,0.52471 0.0808,-0.69772 c 0.0462,-0.39861 0.25097,-0.70433 0.47771,-0.71315 0.67571,-0.0263 2.96674,0.69092 4.63021,1.44948 6.20223,2.82833 7.2656,3.23116 8.06979,3.05702 0.21828,-0.0473 0.76887,-0.16053 1.22354,-0.2517 z m -71.78375,-2.81648 c 0.94318,-0.48457 2.03312,-1.61999 2.03312,-2.11796 0,-0.421441 -0.37649,-0.465309 -4.12335,-0.480451 -4.62489,-0.01871 -4.77237,0.06537 -2.64309,1.506561 1.89924,1.28548 3.59503,1.67666 4.73332,1.09185 z m -20.62682,-2.938353 c 0.56209,-0.452993 0.55832,-0.457192 -0.41565,-0.463021 -1.10156,-0.0066 -1.53066,0.493723 -1.53066,1.784704 0,1.18727 0.3256,1.23867 0.87671,0.13842 0.2763,-0.55163 0.75763,-1.208677 1.0696,-1.460103 z m 25.97186,-0.477853 c 1.7437,-0.160835 3.28187,-0.401595 3.41814,-0.535025 0.13627,-0.133429 0.28453,-0.483542 0.32948,-0.778026 0.0775,-0.507563 -0.018,-0.527306 -1.83527,-0.379378 -2.23157,0.18166 -13.20296,0.200303 -16.86593,0.02866 -4.22022,-0.197755 -10.36536,-0.706948 -11.97737,-0.992455 -0.83948,-0.148682 -1.6223,-0.211013 -1.73961,-0.138512 -0.1173,0.0725 -0.90297,-0.04829 -1.74592,-0.268411 -1.79316,-0.46826 -2.26419,-0.358307 -2.26419,0.528534 0,0.603126 0.17881,0.688824 2.57969,1.236432 1.41883,0.323615 3.05594,0.621692 3.63802,0.662398 1.01716,0.07113 10.23126,0.58642 12.96458,0.725032 4.11826,0.208847 10.74133,0.165058 13.49838,-0.08925 z m 8.28037,-1.24999 c 0.0693,-0.716907 -0.007,-0.857729 -0.46302,-0.857729 -0.44967,0 -0.54593,0.166712 -0.54593,0.945441 0,0.757447 0.0921,0.928002 0.46302,0.857729 0.30494,-0.05777 0.49132,-0.380542 0.54593,-0.945441 z m 14.19268,0.134459 c -0.0989,-0.327422 -0.28531,-0.708192 -0.41419,-0.846159 -0.27256,-0.291756 -10.00926,-0.38545 -10.18691,-0.09802 -0.0653,0.105733 -0.0427,0.495374 0.0503,0.865868 l 0.16907,0.673626 h 5.28082 5.28081 z m 5.43587,0.25731 c 0,-0.530207 -0.78344,-1.514081 -1.20563,-1.514081 -0.49812,0 -0.48558,0.527936 0.03,1.264044 0.44757,0.638993 1.17563,0.793837 1.17563,0.250037 z m -38.49688,-1.867818 c 0.58208,-0.08698 0.90951,-0.09259 0.72761,-0.01246 -0.97349,0.428865 0.0216,0.630772 3.10885,0.630772 2.18802,0 3.43958,-0.09937 3.43958,-0.273082 0,-0.150194 -0.17042,-0.680964 -0.37872,-1.179489 -0.96568,-2.311191 -4.84027,-2.160683 -8.44425,0.328015 -0.87458,0.603932 -0.94903,0.727876 -0.52917,0.880985 0.26873,0.09799 0.60766,0.08935 0.75318,-0.01921 0.14553,-0.108564 0.74084,-0.268555 1.32292,-0.355539 z m 14.35365,0.02294 c 0.70758,-0.563041 0.12186,-4.307981 -0.93822,-5.9987 -1.23164,-1.964353 -3.43512,-3.908492 -5.42037,-4.782426 -2.29591,-1.010689 -6.29334,-1.811018 -9.58256,-1.918531 -4.94253,-0.161554 -12.03057,0.715455 -14.68437,1.816908 -2.89323,1.200825 -8.9602,4.790231 -9.79324,5.793976 -0.39722,0.478631 0.30036,1.820099 1.26593,2.434397 0.39715,0.252671 0.79084,0.554985 0.87486,0.67181 0.084,0.116825 0.47447,-0.04065 0.86768,-0.34994 0.76338,-0.600468 1.4931,-0.528137 1.4931,0.148007 0,0.449364 0.7401,0.794944 2.59063,1.209655 1.41544,0.317209 1.64251,0.158678 1.77376,-1.238374 0.13116,-1.396014 0.37144,-2.468016 0.68414,-3.052301 0.25965,-0.485168 2.16167,-1.601053 2.55187,-1.497138 0.53585,0.142708 1.40714,-0.423305 1.8767,-1.219158 0.60225,-1.020733 2.85593,-2.239349 4.39717,-2.377648 0.55099,-0.04944 1.41047,0.03553 1.90996,0.188827 0.71823,0.220433 1.17042,0.184408 2.1623,-0.172264 1.68365,-0.605434 2.53008,-0.285563 4.1212,1.557434 1.34846,1.561914 1.7197,1.680862 3.09318,0.991079 0.4953,-0.248747 1.62087,-0.499226 2.50127,-0.556619 1.43219,-0.09337 1.68986,-0.02934 2.44739,0.608079 0.82403,0.693369 1.09854,1.536838 0.60038,1.844718 -0.13547,0.08372 -0.32109,0.03122 -0.41249,-0.116677 -0.28279,-0.457567 -1.87151,-0.30594 -2.35148,0.224426 -0.39312,0.434389 -0.40687,0.647746 -0.1151,1.785937 0.18224,0.710937 0.60282,1.661038 0.93461,2.111337 0.33179,0.450298 0.60326,1.051565 0.60326,1.336145 0,1.04725 0.49099,1.189935 3.43958,0.999572 1.52797,-0.09864 2.92696,-0.29778 3.10886,-0.442523 z m -22.82032,-0.321114 c -1.08327,-0.49602 -0.34981,-0.504418 0.83456,-0.0096 0.52243,0.218281 1.05438,0.396875 1.18213,0.396875 0.44682,0 0.22604,-0.680839 -0.51669,-1.593362 -0.41193,-0.506099 -1.08261,-1.608607 -1.49041,-2.450019 -1.04668,-2.159644 -1.70387,-2.612941 -3.53098,-2.435503 -1.87951,0.182529 -3.68456,0.982278 -3.98823,1.767039 -0.44704,1.155253 -0.77944,3.514685 -0.53185,3.775133 0.34027,0.357934 4.20349,0.872127 6.71856,0.894239 1.99699,0.01754 2.07179,-0.0019 1.32291,-0.344848 z m 27.10818,-0.737151 c -0.006,-0.618463 -0.17103,-1.571205 -0.36588,-2.117204 -0.39962,-1.119804 -1.7123,-2.958793 -1.94553,-2.725565 -0.0841,0.08411 0.10409,0.500555 0.41822,0.925438 0.63579,0.85995 1.09476,2.542643 1.10459,4.049623 0.005,0.70268 0.12227,0.992188 0.40334,0.992188 0.29235,0 0.39382,-0.29617 0.38526,-1.12448 z m 6.89078,0.502719 c 0,-0.569419 -1.3645,-2.300987 -3.60891,-4.579746 -1.94771,-1.977521 -3.66612,-3.21669 -5.05619,-3.646091 -0.95958,-0.296419 -0.68266,0.243044 0.3088,0.601558 0.49726,0.179811 1.38777,0.810591 1.97891,1.401733 1.1573,1.1573 2.81456,4.198456 3.09104,5.672215 l 0.17024,0.907508 h 1.55806 c 1.13159,0 1.55805,-0.09777 1.55805,-0.357177 z m 6.16754,-0.105844 c -0.57484,-1.604724 -4.93392,-6.138534 -6.98531,-7.265304 -2.3207,-1.274691 -2.94596,-1.556464 -3.76302,-1.69581 -0.81049,-0.138223 -0.79648,-0.11477 0.36158,0.605274 3.48567,2.167264 5.50953,4.298998 7.02795,7.402532 l 0.69294,1.416329 h 1.41586 c 1.23523,0 1.3947,-0.05907 1.25,-0.463021 z m 5.47413,0.187897 c 0,-0.750928 -1.19093,-2.433211 -2.56539,-3.623807 -1.33196,-1.153779 -4.68016,-3.244819 -5.19565,-3.244819 -0.52906,0 -0.028,0.522306 1.0162,1.05938 1.60357,0.824748 4.14877,3.165382 5.19096,4.77375 0.77596,1.197521 1.55388,1.71592 1.55388,1.035496 z m -42.25196,-1.510813 c 0.11395,0.545703 0.3047,0.992187 0.42388,0.992187 0.11918,0 0.40797,-0.446484 0.64175,-0.992187 l 0.42507,-0.992188 -0.0654,1.124479 c -0.036,0.618464 0.0285,1.124479 0.14329,1.124479 0.11479,0 0.64477,-0.681674 1.17774,-1.514832 0.58511,-0.914673 1.01753,-1.369319 1.09145,-1.147551 0.0673,0.202005 -0.0428,0.496727 -0.24471,0.654937 -0.20192,0.15821 -0.57559,0.738379 -0.83036,1.289265 l -0.46324,1.001611 0.56756,-0.303747 c 1.12382,-0.601452 2.964,-2.514813 3.43421,-3.570786 0.65909,-1.480149 0.32047,-2.563323 -1.30046,-4.159883 -1.52927,-1.506279 -2.36541,-1.632719 -4.79313,-0.724812 -1.85294,0.692954 -3.19949,2.009162 -3.19929,3.127193 1.8e-4,0.9503 0.88453,3.240127 1.78812,4.629918 l 0.72529,1.115563 0.13553,-1.322917 0.13553,-1.322917 z m 9.87743,-1.12448 c 0.75266,0 0.88911,-0.09386 0.88911,-0.611568 0,-1.110244 -1.55415,-2.298848 -3.00585,-2.298848 -0.49364,0 -0.60108,0.162189 -0.65694,0.991666 -0.0367,0.545416 -0.18013,1.10501 -0.31866,1.243541 -0.13854,0.138532 -0.25188,0.422841 -0.25188,0.631798 0,0.299758 0.25901,0.34442 1.22755,0.211666 0.67516,-0.09254 1.62766,-0.168255 2.11667,-0.168255 z m 1.0214,-3.299661 c 0.58209,-0.209703 1.47081,-0.386504 1.97493,-0.392892 0.84944,-0.01076 0.88481,-0.0434 0.48278,-0.445429 -0.62369,-0.623688 -2.78834,-0.769846 -3.98661,-0.269176 -1.17144,0.489459 -1.24472,0.828489 -0.25703,1.189222 0.40018,0.146159 0.7276,0.273351 0.7276,0.282648 0,0.0093 0.47625,-0.154671 1.05833,-0.364373 z m -14.02874,-1.089507 c 0.28126,-0.522271 0.78459,-1.164484 1.1185,-1.427141 0.82688,-0.65042 0.76623,-0.798275 -0.32742,-0.798275 -1.25287,0 -2.47343,0.554254 -3.40695,1.547097 -0.71206,0.757301 -0.73185,0.83065 -0.26458,0.980728 0.27776,0.08921 0.74315,0.263269 1.03419,0.386785 0.96155,0.408078 1.32927,0.270814 1.84626,-0.689194 z M 19.954165,117.43844 c -3.214243,-1.70647 -4.98847,-3.42859 -5.493454,-5.33212 -0.153683,-0.57931 -0.12028,-0.56288 0.268967,0.13229 1.073905,1.91794 3.311928,3.8406 6.123327,5.26049 1.28275,0.64786 1.6833,0.96754 1.190625,0.95026 -0.109141,-0.004 -1.049399,-0.45874 -2.089465,-1.01092 z m 144.440185,-0.88786 c -1.93545,-3.06965 -2.6819,-4.97392 -3.8682,-9.86822 -0.99977,-4.12472 -1.49948,-5.69465 -2.35804,-7.408333 -1.9489,-3.889973 -4.52674,-6.900153 -7.73115,-9.027757 -0.8071,-0.535884 -1.416,-1.02579 -1.35311,-1.08868 0.21667,-0.216663 2.95168,1.701703 4.59434,3.222518 3.56563,3.301147 5.60474,7.159047 7.20989,13.640792 1.19266,4.81607 2.23483,7.62921 3.84268,10.37258 1.25347,2.13873 0.99047,2.26155 -0.33641,0.1571 z M 7.4316802,117.2416 c -0.0035,-0.15877 0.165214,-0.85851 0.374817,-1.55497 0.298714,-0.99255 0.889574,-1.78808 2.7332798,-3.68007 1.695457,-1.73986 2.594488,-2.91655 3.220042,-4.21455 0.477322,-0.99043 0.932902,-1.73573 1.012402,-1.65623 0.0795,0.0795 -0.294627,1.03313 -0.831387,2.11919 -0.725414,1.46778 -1.522249,2.51513 -3.104248,4.08023 -1.6032188,1.58608 -2.2850278,2.4867 -2.7634738,3.65033 -0.349333,0.84961 -0.637978,1.41484 -0.641432,1.25607 z m 58.0600108,-0.87655 c -1.398355,-0.62606 -3.407778,-2.89341 -3.934648,-4.43969 -0.492006,-1.44396 -0.544105,-2.46487 -0.125783,-2.46487 0.173784,0 0.233005,0.23876 0.143814,0.57982 -0.201009,0.76867 0.916739,2.98102 2.147491,4.25052 0.552371,0.56977 1.589148,1.23037 2.42955,1.54805 1.262025,0.47706 1.852525,0.53511 4.24412,0.41723 2.234179,-0.11012 2.545006,-0.0851 1.5875,0.12755 -2.287791,0.50819 -5.334897,0.49946 -6.492044,-0.0186 z m -28.962123,-0.52897 c 0.218281,-0.15514 1.468437,-0.28757 2.778125,-0.29429 7.660674,-0.0393 14.102959,-2.36559 18.371053,-6.63369 1.032378,-1.03238 1.383615,-0.99034 0.397719,0.0476 -3.055448,3.21674 -7.30291,5.42945 -12.683355,6.60737 -1.704737,0.37321 -9.335204,0.60824 -8.863542,0.27301 z m 79.409522,-2.00039 c 0.0911,-0.0911 1.13985,-0.39839 2.33045,-0.68276 3.28394,-0.78434 5.92726,-2.18106 7.95076,-4.20114 3.29213,-3.28655 5.61132,-8.83721 5.66487,-13.558089 0.0126,-1.115532 0.11131,-1.889439 0.21923,-1.719791 0.54039,0.849425 -0.1265,5.675436 -1.25792,9.10295 -1.76796,5.35586 -6.31949,9.42397 -11.76691,10.51714 -1.09141,0.21902 -2.28179,0.46778 -2.64529,0.55281 -0.3635,0.085 -0.58634,0.08 -0.49519,-0.0111 z m 30.69815,-0.99905 c 0.53188,-0.47444 1.51878,-1.32144 2.19313,-1.88223 3.23379,-2.68925 4.11089,-7.25711 2.36661,-12.325183 -0.85499,-2.484192 -0.97147,-2.705865 -2.40523,-4.577358 -0.63961,-0.834896 -1.00831,-1.45347 -0.81933,-1.374609 0.42777,0.178501 2.11625,2.356277 2.65298,3.421767 1.25318,2.48775 2.08711,6.374843 1.86941,8.713663 -0.27575,2.96251 -2.03474,5.7506 -4.68484,7.42571 -0.66755,0.42195 -1.21373,0.84978 -1.21373,0.95071 0,0.10093 -0.20836,0.257 -0.46302,0.34682 -0.25467,0.0898 -0.0279,-0.22486 0.50402,-0.69929 z m -121.087881,0.30977 c -4.62574,-0.1983 -6.232776,-0.51568 -7.93356,-1.56682 -1.17982,-0.72917 -3.046873,-2.79503 -3.045659,-3.36996 7.94e-4,-0.33393 0.14373,-0.24041 0.496787,0.32481 0.81883,1.31092 2.188139,2.44447 3.867849,3.20193 1.460957,0.6588 1.975477,0.73257 6.45469,0.92541 2.766399,0.1191 4.987594,0.32995 5.146146,0.4885 0.195551,0.19555 0.164251,0.2655 -0.10469,0.23396 -0.211006,-0.0247 -2.407709,-0.13178 -4.881563,-0.23783 z m -26.16544277,-1.72319 c -0.293955,-0.76603 -0.165843,-2.90715 0.261003,-4.36211 1.184944,-4.03902 4.05774597,-6.96988 8.04506497,-8.207638 1.879051,-0.583303 6.2025338,-1.305058 7.6729158,-1.280906 1.529033,0.02511 0.159692,0.416303 -2.116666,0.604678 -7.0164968,0.580639 -11.2313448,3.449246 -13.01588577,8.858546 -0.491982,1.4913 -0.692784,3.97957 -0.364069,4.51144 0.100109,0.16198 0.06867,0.29451 -0.06987,0.29451 -0.13854,0 -0.324161,-0.18833 -0.41249,-0.41852 z M 45.525401,106.64018 c -0.509323,-0.0494 -3.128698,-0.27635 -5.820833,-0.50437 -2.692136,-0.22801 -5.115071,-0.47802 -5.3843,-0.55556 -0.269232,-0.0775 -1.697982,-0.14628 -3.175,-0.15274 l -2.685492,-0.0118 1.984375,-0.24572 c 2.123371,-0.26293 6.068311,7.9e-4 11.773958,0.78689 3.353287,0.46204 11.312282,0.6117 13.890626,0.26121 l 1.455208,-0.19782 -1.5875,0.38018 c -1.466567,0.35122 -7.802078,0.49652 -10.451042,0.23969 z M 57.072517,98.58829 C 55.365496,97.688501 52.108423,95.625827 51.561891,95.098464 51.370521,94.913804 49.76209,93.813232 47.987603,92.652748 39.606439,87.17161 34.337466,84.854235 30.25627,84.854235 c -0.933079,0 -1.664203,-0.116237 -1.664203,-0.264583 0,-0.433572 2.6273,-0.297526 4.894792,0.253461 2.862408,0.695548 6.336372,1.996692 7.909611,2.962479 0.712266,0.437249 1.545704,0.893293 1.852083,1.013432 0.306382,0.120139 3.176432,2.087499 6.37789,4.371914 3.201458,2.284413 6.356615,4.429316 7.011459,4.766451 1.167667,0.601149 2.377889,1.424453 2.116666,1.439947 -0.07276,0.0043 -0.829683,-0.359754 -1.682051,-0.809046 z m 22.011516,-0.488463 c -1.136655,-1.997932 -4.167809,-3.120781 -6.168255,-2.284941 -1.373992,0.57409 -1.792785,0.503356 -0.667459,-0.112734 1.187145,-0.649935 3.245514,-0.665808 4.632478,-0.03572 1.135113,0.51567 2.775855,2.184313 2.775855,2.823056 0,0.540706 -0.07069,0.492602 -0.572619,-0.389657 z M 24.623317,97.536405 c 0,-0.162007 0.225608,-0.210807 0.529167,-0.114461 0.375528,0.119186 0.529167,0.04754 0.529167,-0.246754 0,-0.478157 0.465558,-0.526385 1.453904,-0.150616 0.382034,0.145248 0.620882,0.383373 0.530778,0.529166 -0.222607,0.360186 -3.043016,0.344118 -3.043016,-0.01733 z m 34.00822,-2.032691 c -1.44321,-1.967395 -1.762802,-2.814506 -1.694913,-4.492556 0.0838,-2.071319 0.841179,-3.906724 2.304767,-5.585292 0.678132,-0.77774 1.581065,-1.878535 2.006518,-2.446212 0.425453,-0.567677 0.828535,-0.977155 0.895736,-0.909953 0.178028,0.178027 -0.651568,1.384312 -2.111076,3.06964 -1.551839,1.791945 -2.600917,4.232476 -2.600917,6.05066 0,1.410167 0.459676,2.642027 1.659056,4.446005 1.012426,1.522778 0.685925,1.42871 -0.459171,-0.132292 z m -38.77072,-0.113098 c -0.363802,-0.152895 -0.519768,-0.331486 -0.346591,-0.396865 0.173175,-0.06538 0.649425,0.0625 1.058334,0.284171 0.838356,0.454485 0.303149,0.539226 -0.711743,0.112694 z m 42.620659,-0.540212 c -0.05576,-1.763909 2.789076,-5.013146 5.401217,-6.169026 1.7168,-0.759688 6.729911,-2.287984 9.921876,-3.024781 2.64637,-0.610858 7.294541,-2.256278 7.552401,-2.673496 0.0835,-0.135043 0.27081,-0.245533 0.41633,-0.245533 0.14552,0 0.18185,0.133864 0.0807,0.297474 -0.44931,0.727011 -5.538565,2.554957 -11.356753,4.079094 -1.455208,0.381208 -3.479271,0.942691 -4.497917,1.247739 -1.018646,0.305049 -1.94138,0.533591 -2.050521,0.507872 -0.10914,-0.02572 -0.198437,0.05319 -0.198437,0.175352 0,0.122163 -0.297442,0.357637 -0.66098,0.523276 -1.689692,0.769876 -3.756901,3.288302 -4.383267,5.340027 L 62.50419,95.56986 62.48143,94.850404 Z M 16.376564,94.138241 c -2.570742,-1.012102 -5.50423,-2.524067 -5.805745,-2.99237 -0.08903,-0.138279 -0.222867,-0.211481 -0.297416,-0.162672 -0.229511,0.150268 -2.8480028,-1.650531 -2.8480028,-1.958638 0,-0.159374 -0.07586,-0.213913 -0.168572,-0.121198 -0.213458,0.213459 -1.195774,-0.486754 -3.780758,-2.694994 -1.12736,-0.963055 -2.61803197,-2.144727 -3.31260497,-2.625938 -0.694572,-0.481211 -1.19204403,-0.945744 -1.105492,-1.032296 0.212395,-0.212396 2.53140897,1.365476 4.79741797,3.264194 4.641951,3.889551 8.8402128,6.472367 13.2934468,8.178272 1.055026,0.40415 1.918229,0.835071 1.918229,0.957601 0,0.275851 0.310719,0.369622 -2.690503,-0.811961 z m 7.284414,-1.305253 C 22.476845,92.155455 21.069722,91.26142 20.534034,90.846244 18.329068,89.13732 17.02977,86.334757 17.529576,84.365679 c 0.329301,-1.297343 0.884526,-1.839212 2.08402,-2.033883 l 0.90868,-0.147473 -0.9187,0.47506 c -1.689174,0.873472 -2.041525,2.679736 -0.971132,4.978342 0.781214,1.677613 2.639748,3.35567 5.415283,4.889427 1.185026,0.654844 2.156508,1.279922 2.158844,1.389062 0.0071,0.331351 -0.306665,0.197838 -2.545593,-1.083226 z M 145.5379,85.112143 c -0.65484,-0.07643 1.54782,-0.219067 4.8948,-0.316966 3.34697,-0.0979 7.33557,-0.365915 8.86354,-0.59559 3.044,-0.457556 7.47401,-0.489584 12.50643,-0.09042 4.10484,0.325591 5.78287,0.746308 2.44253,0.612391 -1.30969,-0.05251 -4.40532,-0.176696 -6.87917,-0.275977 -3.42917,-0.13762 -5.53293,-0.07312 -8.85384,0.271456 -4.39948,0.456485 -10.7829,0.650879 -12.97429,0.395106 z"
       id="path26" />
  </g>
</svg>
